/* XPM */
static const char *character00Walk_Sheet_5[] = {
/* columns rows colors chars-per-pixel */
"22 32 87 1 ",
"  c #030301",
". c #080704",
"X c #0B0905",
"o c #110E08",
"O c #16120A",
"+ c #1A140C",
"@ c #221C11",
"# c #272013",
"$ c #292115",
"% c #2F2619",
"& c #352A1B",
"* c #2E2922",
"= c #322D25",
"- c #382F23",
"; c #352F28",
": c #373027",
"> c #3D3222",
", c #37322A",
"< c #3A332A",
"1 c #433624",
"2 c #463825",
"3 c #483A27",
"4 c #40372C",
"5 c #45392B",
"6 c #4C3D29",
"7 c #453C33",
"8 c #483E33",
"9 c #4F402B",
"0 c #52432E",
"q c #4C4135",
"w c #554531",
"e c #584731",
"r c #5C4B34",
"t c #56473B",
"y c #574A3E",
"u c #5C4C3D",
"i c #604F38",
"p c #64523B",
"a c #69563E",
"s c #5B4D42",
"d c #5D5046",
"f c #625245",
"g c #6A5640",
"h c #6D5A43",
"j c #6C5A4D",
"k c #715C45",
"l c #765E4A",
"z c #795F4D",
"x c #6B5B50",
"c c #715E50",
"v c #76624A",
"b c #7A644C",
"n c #7B684F",
"m c #766355",
"M c #7A6555",
"N c #7D6A52",
"B c #83684F",
"V c #856751",
"C c #826C54",
"Z c #886B55",
"A c #8A6E56",
"S c #8C6F57",
"D c #8B6D5A",
"F c #8D6F5C",
"G c #8F725C",
"H c #917259",
"J c #94745C",
"K c #937460",
"L c #967763",
"P c #9D7A63",
"I c #9F7C64",
"U c #A27E65",
"Y c #A68169",
"T c #A98469",
"R c #AE876D",
"E c #AC8870",
"W c #B78D73",
"Q c #B68D74",
"! c #B99074",
"~ c #BC9177",
"^ c #C4977C",
"/ c #C99B81",
"( c #CD9E82",
") c #D0A184",
"_ c #D5A486",
"` c #DEAB8D",
"' c None",
/* pixels */
"''''''''''''''''''''''",
"''''''''''''''''''''''",
"''''''''&&&&&&''''''''",
"''''''''11>>>>''''''''",
"''''36rirw00966321''''",
"''''60ighhappirw06''''",
"''360rhvnNbvvvkhpr06''",
"''39ephvNNNNCCNbhp06''",
"''60epakvbbNCCCNkpe0''",
"''69epakvbbbnNNbhpw9''",
"''260ihbASVvkkkhpr63''",
"''16wpvDIUJVkapprw61''",
"''''rhVIQ~RJvppre0''''",
"''''alGE/)^TBarw06''''",
"''''kbP!_`_!Hkr031''''",
"''''kVUW(_)!Hke61>''''",
"''''''JUQQQYZg01''''''",
"''''''zMDKLFlu5>''''''",
"''''''wtfjmcs8<=''''''",
"'''''',<qsxjs7:*''''''",
"''''''=,7dmMfq,=''''''",
"''''''*;7sMMfq<=''''''",
"''''''*;7yjjs8,=''''''",
"''''''*;4quuq4,=''''''",
"''''''''>155>-''''''''",
"''''''''%&&&%$''''''''",
"''''''o+@#$$@+X   ''''",
"''''''XoO+++Oo.   ''''",
"''''  ..XXXXX..   ''''",
"''''              ''''",
"''''''''''''''''''''''",
"''''''''''''''''''''''"
};
