/* XPM */
static const char *character00Walk_Sheet_17[] = {
/* columns rows colors chars-per-pixel */
"22 32 78 1 ",
"  c #060403",
". c #090604",
"X c #0C0906",
"o c #100C07",
"O c #130E09",
"+ c #16110A",
"@ c #1A140C",
"# c #1E180E",
"$ c #1F1910",
"% c #211A0F",
"& c #241D11",
"* c #2C2315",
"= c #2C2419",
"- c #302517",
"; c #312718",
": c #352A1C",
"> c #392D1D",
", c #352D23",
"< c #382F22",
"1 c #3C3223",
"2 c #37342E",
"3 c #3A342B",
"4 c #373430",
"5 c #3A3630",
"6 c #3C3935",
"7 c #3B3A38",
"8 c #423524",
"9 c #473927",
"0 c #493B27",
"q c #423729",
"w c #44382A",
"e c #4C3D29",
"r c #443C33",
"t c #4A3F34",
"y c #4E402D",
"u c #52432E",
"i c #4C4136",
"p c #554631",
"a c #594732",
"s c #5B4A34",
"d c #524539",
"f c #5D4C3B",
"g c #614F36",
"h c #614E3A",
"j c #655239",
"k c #62513C",
"l c #64543E",
"z c #69563B",
"x c #68563F",
"c c #6B583E",
"v c #6C593F",
"b c #675342",
"n c #6D5643",
"m c #6B5A43",
"M c #6D5A40",
"N c #6F5D43",
"B c #6B5945",
"V c #6C5B45",
"C c #6E5D47",
"Z c #725F46",
"A c #705E48",
"S c #726046",
"D c #75634B",
"F c #76644B",
"G c #77654C",
"H c #79664C",
"J c #7B684F",
"K c #7B6952",
"L c #7D6A50",
"P c #7E6C53",
"I c #7E6C54",
"U c #816F56",
"Y c #827057",
"T c #837158",
"R c #847259",
"E c #86745B",
"W c #87755C",
"Q c None",
/* pixels */
"QQQQQQQQQQQQQQQQQQQQQQ",
"QQQQQQQQQQQQQQQQQQQQQQ",
"QQQQQQQQ::::::::QQQQQQ",
"QQQQQQQQ81111188QQQQQQ",
"QQQQafkkapuuuupaffpuQQ",
"QQQQfkBCVmlkllmVVlauQQ",
"QQualAKUIKGDGKIUIGxa01",
"QQuaxFUWWRYUYRWWRLMse8",
"QQpalSJURWRRRERTPDvse8",
"QQuajcZHPUUUUUPJFNjae8",
"QQyuagzMZFFFFFSNcjau98",
"QQeeyusjxvMMMvxjgay988",
"QQQQ89usjzzxxzjgpe8>QQ",
"QQQQ>10ugjjjjjgae8:-QQ",
"QQQQ;>8yaffggssu9>;*QQ",
"QQQQ*:19uuppuuu01>*&QQ",
"QQQQ=:>1899999811>QQQQ",
"QQQQ,,,11111111111QQQQ",
"QQQQ33333333333333rtQQ",
"QQQQitr2222222456ridQQ",
"QQupffi655666667rdfbQQ",
"QQuphfir66677777rdbnQQ",
"QQQQfpr366777766rtflQQ",
"QQQQapq3255555223wphQQ",
"QQQQQQ1<11,,,,1<:>QQQQ",
"QQQQQQ;;:=====:;**QQQQ",
"QQQQQQ&&&&#@#$&&%#QQQQ",
"QQQQQQ++++oXoO++++QQQQ",
"QQQQ  .XXX.  .XXXXQQQQ",
"QQQQ              QQQQ",
"QQQQQQQQQQQQQQQQQQQQQQ",
"QQQQQQQQQQQQQQQQQQQQQQ"
};
