/* XPM */
static const char *character00Walk_Sheet_27[] = {
/* columns rows colors chars-per-pixel */
"22 32 96 2 ",
"   c #060401",
".  c #080703",
"X  c #0D0A05",
"o  c #100C06",
"O  c #151009",
"+  c #19130B",
"@  c #21190F",
"#  c #251D12",
"$  c #2A2115",
"%  c #302617",
"&  c #312719",
"*  c #33291B",
"=  c #3C301F",
"-  c #2F2A22",
";  c #342D24",
":  c #392F22",
">  c #322E28",
",  c #3D3224",
"<  c #34312B",
"1  c #3B342C",
"2  c #3A3732",
"3  c #3D3934",
"4  c #433624",
"5  c #463925",
"6  c #483B27",
"7  c #44392D",
"8  c #4C3E2A",
"9  c #453C33",
"0  c #4F402C",
"q  c #52432E",
"w  c #4D433A",
"e  c #554531",
"r  c #584732",
"t  c #5B4B35",
"y  c #53463B",
"u  c #56493D",
"i  c #5C4D3B",
"p  c #604F39",
"a  c #64523B",
"s  c #69553E",
"d  c #4B4641",
"f  c #4E4843",
"g  c #524A42",
"h  c #5B4D40",
"j  c #5F5044",
"k  c #5C5149",
"l  c #665547",
"z  c #6A5640",
"x  c #6D5A43",
"c  c #64564C",
"v  c #67584C",
"b  c #6B5B4E",
"n  c #715C45",
"m  c #755E48",
"M  c #655B54",
"N  c #6B5C52",
"B  c #715F52",
"V  c #76634B",
"C  c #79644C",
"Z  c #7B684F",
"A  c #726053",
"S  c #7F6551",
"D  c #7D6B52",
"F  c #75675D",
"G  c #7C695C",
"H  c #80644E",
"J  c #836851",
"K  c #816E55",
"L  c #886B54",
"P  c #8B6F57",
"I  c #8C6F57",
"U  c #8B6E5A",
"Y  c #8F725C",
"T  c #907158",
"R  c #94745C",
"E  c #937560",
"W  c #967763",
"Q  c #9D7A63",
"!  c #9F7C64",
"~  c #A27E66",
"^  c #A68169",
"/  c #A98369",
"(  c #AD876D",
")  c #B0896F",
"_  c #B78D73",
"`  c #B58E74",
"'  c #B98F74",
"]  c #BB9177",
"[  c #C4977C",
"{  c #C89B81",
"}  c #CD9D82",
"|  c #D0A185",
" . c #D5A386",
".. c #D5A487",
"X. c #DEAA8D",
"o. c None",
/* pixels */
"o.o.o.o.o.o.o.o.o.o.o.o.o.o.o.o.o.o.o.o.o.o.",
"o.o.o.o.o.o.o.o.o.o.o.o.o.o.o.o.o.o.o.o.o.o.",
"o.o.o.o.o.o.o.o.& & & * * * o.o.o.o.o.o.o.o.",
"o.o.o.o.o.o.o.o., = , , 4 4 o.o.o.o.o.o.o.o.",
"o.o.o.o.4 5 6 8 8 0 q e e t p t 0 6 o.o.o.o.",
"o.o.o.o.8 0 e t p a s z x x z a e 8 o.o.o.o.",
"o.o.8 q t a z n V C C C D Z V z i e 8 6 o.o.",
"o.o.8 q a x C D K K D D D D V x a r 0 6 o.o.",
"o.o.8 e a n D K K D D C C V x s a t q 8 o.o.",
"o.o.8 q a x C D Z Z C C C C n s a r q 6 o.o.",
"o.o.5 8 t s x x x n C J I P C x p q 6 5 o.o.",
"o.o.4 6 e t a a s n J R ~ ! P V a e 6 4 o.o.",
"o.o.o.o.q r t a a C R ( ] ` ! J z t o.o.o.o.",
"o.o.o.o.8 q r p s J / [ | { ( Y m s o.o.o.o.",
"o.o.o.o.5 6 q t n T ]  .X...] Q H n o.o.o.o.",
"o.o.o.o.4 4 6 r n T ' | ..} _ ~ J m o.o.o.o.",
"o.o.o.o.o.o.4 q z L ^ ` ' ) ~ R o.o.o.o.o.o.",
"o.o.o.o.o.o., 6 p C Y W E U S C o.o.o.o.o.o.",
"o.o.o.o.o.o., 7 u l B A v j u y o.o.o.o.o.o.",
"o.o.o.o.o.o.1 9 h v N c g 9 1 1 o.o.o.o.o.o.",
"o.o.o.o.o.o.9 y b G F M f 3 < ; o.o.o.o.o.o.",
"o.o.o.o.o.o.9 u A G F M d 2 > - o.o.o.o.o.o.",
"o.o.o.o.o.o.9 w l N N k w 1 ; - o.o.o.o.o.o.",
"o.o.o.o.o.o., 7 y i u w 9 1 : * o.o.o.o.o.o.",
"o.o.o.o.$ $ & : , , , , , : * * o.o.o.o.o.o.",
"o.o.o.o.# $ $ $ $ $ $ $ & & & % o.o.o.o.o.o.",
"o.o.o.o.@ @ @ @ + + + + # # # # o.o.o.o.o.o.",
"o.o.o.o.+ + + O o X X o O + + + o.o.o.o.o.o.",
"o.o.o.o.X X X X . . . . X X X X . . o.o.o.o.",
"o.o.o.o.. . . . .     . . . . . . . o.o.o.o.",
"o.o.o.o.o.o.o.o.o.o.o.o.o.o.o.o.o.o.o.o.o.o.",
"o.o.o.o.o.o.o.o.o.o.o.o.o.o.o.o.o.o.o.o.o.o."
};
