/* XPM */
static const char *character00Walk_Sheet_26[] = {
/* columns rows colors chars-per-pixel */
"22 32 96 2 ",
"   c #060402",
".  c #090604",
"X  c #0C0905",
"o  c #110D07",
"O  c #130F08",
"+  c #161109",
"@  c #1A140C",
"#  c #1E180E",
"$  c #211A0F",
"%  c #251D12",
"&  c #2C2316",
"*  c #2D251A",
"=  c #312718",
"-  c #33291A",
";  c #3D301F",
":  c #2E2922",
">  c #322C23",
",  c #322E28",
"<  c #3C3223",
"1  c #35312B",
"2  c #3A332B",
"3  c #3A3732",
"4  c #3D3A34",
"5  c #433623",
"6  c #463925",
"7  c #493B27",
"8  c #423729",
"9  c #44392B",
"0  c #4C3E29",
"q  c #453C33",
"w  c #4F402C",
"e  c #52432E",
"r  c #4C433A",
"t  c #554631",
"y  c #594732",
"u  c #5B4B35",
"i  c #53473B",
"p  c #56493C",
"a  c #5F4E38",
"s  c #604F39",
"d  c #64523B",
"f  c #69553E",
"g  c #4B4640",
"h  c #4E4843",
"j  c #524A42",
"k  c #5B4D40",
"l  c #5F5044",
"z  c #5D5249",
"x  c #6A5640",
"c  c #6D5A43",
"v  c #65564B",
"b  c #6A5A4D",
"n  c #715C45",
"m  c #755E48",
"M  c #795F4D",
"N  c #655B54",
"B  c #6A5C52",
"V  c #715F52",
"C  c #76624A",
"Z  c #79644D",
"A  c #7B684F",
"S  c #726053",
"D  c #7F6452",
"F  c #7D6B52",
"G  c #75675D",
"H  c #7C695C",
"J  c #80644E",
"K  c #826B53",
"L  c #886B54",
"P  c #8A6D55",
"I  c #8C6F57",
"U  c #8B6F58",
"Y  c #8F725C",
"T  c #907158",
"R  c #94745C",
"E  c #937561",
"W  c #967764",
"Q  c #9D7B63",
"!  c #9F7C64",
"~  c #A27E66",
"^  c #A68169",
"/  c #A98369",
"(  c #AD876D",
")  c #B08870",
"_  c #B58E74",
"`  c #B98F74",
"'  c #BB9177",
"]  c #C4977C",
"[  c #C89B81",
"{  c #CD9D82",
"}  c #D0A185",
"|  c #D5A386",
" . c #D5A487",
".. c #D6A488",
"X. c #DEAA8D",
"o. c None",
/* pixels */
"o.o.o.o.o.o.o.o.o.o.o.o.o.o.o.o.o.o.o.o.o.o.",
"o.o.o.o.o.o.o.o.o.o.o.o.o.o.o.o.o.o.o.o.o.o.",
"o.o.o.o.o.o.o.o.= = = - - - o.o.o.o.o.o.o.o.",
"o.o.o.o.o.o.o.o.; ; ; < 5 5 o.o.o.o.o.o.o.o.",
"o.o.o.o.5 6 7 0 0 w e t t u s u w 7 o.o.o.o.",
"o.o.o.o.0 e t u s d f x c c x d e 0 o.o.o.o.",
"o.o.0 e u d x n C Z Z Z F A C x a t 0 7 o.o.",
"o.o.0 e d c Z F K K F F F F C c d y w 7 o.o.",
"o.o.0 t d n F K K F F Z Z C c f d u e 0 o.o.",
"o.o.0 e d c Z F F A Z Z Z C n f s y e 7 o.o.",
"o.o.6 0 u f c c c n Z K I P Z c s e 7 6 o.o.",
"o.o.5 0 t a d d f n K R ~ ! U C d t 7 5 o.o.",
"o.o.o.o.e y a d d C R ( ' _ ! K x a o.o.o.o.",
"o.o.o.o.0 e y s f K / ] } [ ( Y m f o.o.o.o.",
"o.o.o.o.6 7 e a n T ` | X. .' Q J n o.o.o.o.",
"o.o.o.o.5 5 7 y n T ` } ..{ _ ~ K m o.o.o.o.",
"o.o.o.o.o.o.5 e x L ^ _ ` ) ~ R o.o.o.o.o.o.",
"o.o.o.o.o.o.< 7 s Z Y W E U D M o.o.o.o.o.o.",
"o.o.o.o.o.o.< 9 p v V S b l i i o.o.o.o.o.o.",
"o.o.o.o.o.o.2 q k b B v j q 2 2 o.o.o.o.o.o.",
"o.o.o.o.o.o.q i b H G N h 4 1 > o.o.o.o.o.o.",
"o.o.o.o.o.o.q p S H G N g 3 , : o.o.o.o.o.o.",
"o.o.o.o.o.o.q r v V B z r 2 > : o.o.o.o.o.o.",
"o.o.o.o.o.o.2 9 i k k i q 1 > * o.o.o.o.o.o.",
"o.o.o.o.o.o.- > < 8 8 8 < - * & o.o.o.o.o.o.",
"o.o.o.o.o.o.% & & = = - = & % % o.o.o.o.o.o.",
"o.o.o.o.X O # $ $ % % % % % # @ o.o.o.o.o.o.",
"o.o.o.o.X X O + + + + @ @ @ + o o.o.o.o.o.o.",
"o.o.o.o.  . X X X X X X X X X .     o.o.o.o.",
"o.o.o.o.                            o.o.o.o.",
"o.o.o.o.o.o.o.o.o.o.o.o.o.o.o.o.o.o.o.o.o.o.",
"o.o.o.o.o.o.o.o.o.o.o.o.o.o.o.o.o.o.o.o.o.o."
};
