/* XPM */
static const char *character00Walk_Sheet_23[] = {
/* columns rows colors chars-per-pixel */
"22 32 76 1 ",
"  c #020201",
". c #090703",
"X c #0C0A05",
"o c #110E08",
"O c #15110A",
"+ c #1A150C",
"@ c #1F190F",
"# c #251E13",
"$ c #2B2216",
"% c #2C2519",
"& c #2E281F",
"* c #312718",
"= c #342A1C",
"- c #3A2F1D",
"; c #3D311F",
": c #2F2920",
"> c #352E23",
", c #382E20",
"< c #332F28",
"1 c #3B3124",
"2 c #36312B",
"3 c #39342D",
"4 c #3A3631",
"5 c #3A3835",
"6 c #3B3A39",
"7 c #423523",
"8 c #473926",
"9 c #483A26",
"0 c #453B2F",
"q c #4C3D2A",
"w c #433B35",
"e c #483E34",
"r c #4F402B",
"t c #52432D",
"y c #4D4238",
"u c #554631",
"i c #5B4A34",
"p c #53473E",
"a c #5E4D38",
"s c #604F37",
"d c #604F3F",
"f c #615036",
"g c #655339",
"h c #63523C",
"j c #65513E",
"k c #65543E",
"l c #68563F",
"z c #6A583E",
"x c #6C593F",
"c c #5F4F42",
"v c #645140",
"b c #6B5A43",
"n c #6C5940",
"m c #6F5C42",
"M c #6B5A44",
"N c #6C5B44",
"B c #6F5D47",
"V c #705D43",
"C c #705E48",
"Z c #726046",
"A c #76634B",
"S c #77644A",
"D c #77654C",
"F c #79664C",
"G c #7B684F",
"H c #7B6952",
"J c #7C6A52",
"K c #7E6C53",
"L c #7E6D55",
"P c #816F56",
"I c #827057",
"U c #847359",
"Y c #85745B",
"T c #87755C",
"R c #88775D",
"E c None",
/* pixels */
"EEEEEEEEEEEEEEEEEEEEEE",
"EEEEEEEEEEEEEEEEEEEEEE",
"EEEEEEEE========EEEEEE",
"EEEEEEEE77111177EEEEEE",
"EEEEiahhiuttttuiaautEE",
"EEEEahMBBbkhkkbBNkitEE",
"EEtikCHPLJDADHLPLDki91",
"EEtilAPTTYIPIURRUJniq7",
"EEtikZGIYTUUYYYUKSxaq7",
"EEtifzZFKPPPPPKGAmkiq7",
"EEqtislnZAAAAAZVzgit87",
"EEqqttiglnnnnxzksit977",
"EEEE78tiglllllkstq7-EE",
"EEEE=;9taggkkgfiq7=*EE",
"EEEE*=7riaassait8-*$EE",
"EEEE%=;8tttuutt91=%$EE",
"EEEE&=,178899871==EEEE",
"EEEE22221111111-==EEEE",
"EEEEee332222222>>>EEEE",
"EEEEppe4333333332<EEEE",
"EEtivcyw445555543<&%EE",
"EEtijdyw5566666542&%EE",
"EEEEaie34455555432EEEE",
"EEEEiu03223333432>EEEE",
"EEEEEEEE:&&:>>22>=EEEE",
"EEEEEEEE%$##$%==%%EEEE",
"EEEEEEEEEEOO+@####EEEE",
"EEEEEEEEEE..XoO+++EEEE",
"EEEE         .XXXXEEEE",
"EEEE          ....EEEE",
"EEEEEEEEEEEEEEEEEEEEEE",
"EEEEEEEEEEEEEEEEEEEEEE"
};
