/* XPM */
static const char *character00Walk_Sheet_24[] = {
/* columns rows colors chars-per-pixel */
"22 32 78 1 ",
"  c #030300",
". c #080603",
"X c #0C0905",
"o c #130F08",
"O c #151009",
"+ c #1A140C",
"@ c #211A0F",
"# c #251E12",
"$ c #2B2215",
"% c #2E2518",
"& c #312718",
"* c #352B1C",
"= c #382D1D",
"- c #3C301F",
"; c #352E23",
": c #392F20",
"> c #352F28",
", c #373027",
"< c #3C3224",
"1 c #37332E",
"2 c #39342B",
"3 c #3A3732",
"4 c #3B3935",
"5 c #3A3A39",
"6 c #423523",
"7 c #473926",
"8 c #483B27",
"9 c #413729",
"0 c #43392D",
"q c #4C3E2A",
"w c #443C33",
"e c #4F402C",
"r c #53432E",
"t c #4B4137",
"y c #4C423A",
"u c #554530",
"i c #574837",
"p c #5A4A33",
"a c #52483E",
"s c #5E4D38",
"d c #604F36",
"f c #604F3F",
"g c #645237",
"h c #655339",
"j c #63523D",
"k c #65543E",
"l c #69563B",
"z c #68563F",
"x c #6B593F",
"c c #6D5A3F",
"v c #594C40",
"b c #5E4F42",
"n c #635141",
"m c #6B5A43",
"M c #6D5B40",
"N c #6F5D42",
"B c #6B5A44",
"V c #6C5B45",
"C c #6E5D46",
"Z c #715F45",
"A c #705F48",
"S c #726046",
"D c #76634B",
"F c #76644A",
"G c #77654C",
"H c #79664C",
"J c #7B694F",
"K c #7B6952",
"L c #7E6C53",
"P c #7E6D55",
"I c #816F56",
"U c #827056",
"Y c #837258",
"T c #847359",
"R c #86745B",
"E c #87755C",
"W c #88765D",
"Q c None",
/* pixels */
"QQQQQQQQQQQQQQQQQQQQQQ",
"QQQQQQQQQQQQQQQQQQQQQQ",
"QQQQQQQQ********QQQQQQ",
"QQQQQQQQ66<<<666QQQQQQ",
"QQQQisjjiurrrruissurQQ",
"QQQQsjBCVmkkkzmVBkirQQ",
"QQrpkAKIPKGFGJPIPDku7<",
"QQrpkDIEERUIUTWWTKmp76",
"QQrikSJIRERTRRRYLFxpq6",
"QQrpgxSHLIIIIILJDNhpq6",
"QQerpdhMZDDDDDSNzjpr76",
"QQqqerpgzxcccczhsue766",
"QQQQ67rpglllzlhdrq6-QQ",
"QQQQ=-7rsghhhgdpe6*&QQ",
"QQQQ&=6epsdddspr7-&$QQ",
"QQQQ%*<7rrrrrrr86=$$QQ",
"QQQQ**:<67777776-=QQQQ",
"QQQQ,,,,,<<<<<<,==QQQQ",
"QQQQtw322,22222,:;;;QQ",
"QQQQvaw321111111>;;,QQ",
"QQrinbyw334544331222QQ",
"QQrpkftw44555543220wQQ",
"QQQQsiw2344444432200QQ",
"QQQQiu9222222222,,9qQQ",
"QQQQQQ:::;:::,,:**QQQQ",
"QQQQQQ*==*%$$%**$$QQQQ",
"QQQQQQQQQQ+++@##@@QQQQ",
"QQQQQQQQQQXXXo++OOQQQQ",
"QQQQ         .XXXXQQQQ",
"QQQQ              QQQQ",
"QQQQQQQQQQQQQQQQQQQQQQ",
"QQQQQQQQQQQQQQQQQQQQQQ"
};
