/* XPM */
static const char *character00Walk_Sheet_19[] = {
/* columns rows colors chars-per-pixel */
"22 32 86 1 ",
"  c #040301",
". c #090703",
"X c #0C0905",
"o c #0F0D08",
"O c #151009",
"+ c #1A140B",
"@ c #231C13",
"# c #281F12",
"$ c #2D2215",
"% c #272118",
"& c #2C261D",
"* c #2E281F",
"= c #302617",
"- c #312618",
"; c #352A1B",
": c #392E1E",
"> c #2E2921",
", c #332C23",
"< c #382F22",
"1 c #332E29",
"2 c #3C3223",
"3 c #36322C",
"4 c #3B352B",
"5 c #373531",
"6 c #393732",
"7 c #3B3936",
"8 c #3B3A38",
"9 c #423524",
"0 c #473926",
"q c #483A26",
"w c #443A2C",
"e c #4B3D2A",
"r c #433D35",
"t c #463F38",
"y c #4F402C",
"u c #53432E",
"i c #4E4133",
"p c #4C433A",
"a c #554630",
"s c #584730",
"d c #574835",
"f c #5B4A33",
"g c #53473B",
"h c #55483D",
"j c #5D4D39",
"k c #604F36",
"l c #624E39",
"z c #635137",
"x c #64533B",
"c c #68563B",
"v c #68523E",
"b c #69573C",
"n c #6B593E",
"m c #6C5A3F",
"M c #594C41",
"N c #675640",
"B c #605144",
"V c #665445",
"C c #685442",
"Z c #695841",
"A c #6D5B43",
"S c #6F5D42",
"D c #6A5A45",
"F c #6C5B45",
"G c #6E5D47",
"H c #6F5A49",
"J c #6F5E49",
"K c #725A46",
"L c #726046",
"P c #746247",
"I c #75634B",
"U c #75644C",
"Y c #79674C",
"T c #7A684F",
"R c #7B6953",
"E c #7C6A52",
"W c #7F6D53",
"Q c #7E6C54",
"! c #816F56",
"~ c #827056",
"^ c #837158",
"/ c #847259",
"( c #86745B",
") c #87755C",
"_ c #88765D",
"` c None",
/* pixels */
"``````````````````````",
"``````````````````````",
"````````;;;;;;;;``````",
"````````99222299``````",
"````djxxdauyuuadjjau``",
"````jxDGFZxxxbAGFxda``",
"``udxJR!QEUIUTQ!QUxfq9",
"``udNU!)_(~!~/)_/EAde9",
"``adxLT~()//(((^WInje9",
"``ufznLYW!!!!!WTISxfe0",
"``yufzcmLIIIIPLSnxdu09",
"``eeuufzbmmmmnbxkseq99",
"````9qufzcccccxkae9:``",
"````:2eujzxxxzkfy9;=``",
"````-:9yfjjkkkfu0:-$``",
"````=;20uuuauuue9:$#``",
"``````:2900qq0992<````",
"``````<<2222222224````",
"````>,,1333333344rgM``",
"````>>1333333336rpMB``",
"````*,3567777778thVH``",
"````*,3678887778rgCK``",
"``````3678777666wijv``",
"``````34464333334edl``",
"``````<2221,*&*>``````",
"``````--;-$@@@%&``````",
"``````###@+Ooo````````",
"``````+++Oo.  ````````",
"````  .XX.        ````",
"````              ````",
"``````````````````````",
"``````````````````````"
};
