/* XPM */
static const char *character00Walk_Sheet_3[] = {
/* columns rows colors chars-per-pixel */
"22 32 95 2 ",
"   c #050403",
".  c #080604",
"X  c #0D0A06",
"o  c #100C07",
"O  c #16110A",
"+  c #19140C",
"@  c #221A0F",
"#  c #251D11",
"$  c #2B2215",
"%  c #312719",
"&  c #342A1B",
"*  c #3D301F",
"=  c #2F2A23",
"-  c #332C23",
";  c #382F23",
":  c #322E28",
">  c #3D3223",
",  c #35312B",
"<  c #3B342C",
"1  c #3B3732",
"2  c #3E3A35",
"3  c #433625",
"4  c #473926",
"5  c #483A26",
"6  c #43392D",
"7  c #4C3D2A",
"8  c #453C33",
"9  c #4F402B",
"0  c #52432E",
"q  c #4D433A",
"w  c #564632",
"e  c #584731",
"r  c #5C4B34",
"t  c #53463B",
"y  c #56493C",
"u  c #614F39",
"i  c #63523A",
"p  c #69553E",
"a  c #4C4641",
"s  c #4E4943",
"d  c #524A43",
"f  c #5A4C40",
"g  c #5F5044",
"h  c #5C5149",
"j  c #665547",
"k  c #695740",
"l  c #6D5A43",
"z  c #63564C",
"x  c #67584C",
"c  c #6B5A4E",
"v  c #715C45",
"b  c #755E48",
"n  c #655B54",
"m  c #6B5C52",
"M  c #715F52",
"N  c #76624A",
"B  c #7A644D",
"V  c #7B684F",
"C  c #716054",
"Z  c #7F6451",
"A  c #7D6A52",
"S  c #75675D",
"D  c #7A675B",
"F  c #7D6A5D",
"G  c #84684F",
"H  c #826C53",
"J  c #896B54",
"K  c #8A6D55",
"L  c #8C6F57",
"P  c #8A6D5A",
"I  c #8F725C",
"U  c #917259",
"Y  c #94745C",
"T  c #927460",
"R  c #957663",
"E  c #9D7B63",
"W  c #9F7C64",
"Q  c #A27E65",
"!  c #A68168",
"~  c #AA8469",
"^  c #AE876D",
"/  c #B0886F",
"(  c #AC8870",
")  c #B78D73",
"_  c #B68E74",
"`  c #B88E75",
"'  c #BA9074",
"]  c #BC9177",
"[  c #C4977C",
"{  c #C99B81",
"}  c #CD9D82",
"|  c #D0A084",
" . c #D5A486",
".. c #DEAA8D",
"X. c None",
/* pixels */
"X.X.X.X.X.X.X.X.X.X.X.X.X.X.X.X.X.X.X.X.X.X.",
"X.X.X.X.X.X.X.X.X.X.X.X.X.X.X.X.X.X.X.X.X.X.",
"X.X.X.X.X.X.X.X.& & & & & & X.X.X.X.X.X.X.X.",
"X.X.X.X.X.X.X.X.3 3 > > * > X.X.X.X.X.X.X.X.",
"X.X.X.X.5 9 r u r w 0 0 9 7 7 7 4 3 X.X.X.X.",
"X.X.X.X.7 0 i l l l p i i u r w 0 7 X.X.X.X.",
"X.X.5 7 0 r l N V A B N N N v l i r 0 7 X.X.",
"X.X.7 9 e i l N A A A A H H A B l i 0 7 X.X.",
"X.X.7 0 e i p v N B B A H H H A v i w 7 X.X.",
"X.X.7 0 e i p v N B B B V A A B l i 0 7 X.X.",
"X.X.4 7 0 u l B K L H N v v v l i r 7 5 X.X.",
"X.X.3 7 w i N K W Q Y H v p i i r w 7 3 X.X.",
"X.X.X.X.r l H W _ ] ^ Y N p i r e 0 X.X.X.X.",
"X.X.X.X.p b I ( { | [ ~ G p u w 0 7 X.X.X.X.",
"X.X.X.X.v B E '  ... .' U v r 0 5 3 X.X.X.X.",
"X.X.X.X.b H Q ) }  .| ' U v e 7 3 > X.X.X.X.",
"X.X.X.X.X.X.Y Q / ` _ ! J k 0 3 X.X.X.X.X.X.",
"X.X.X.X.X.X.B Z P T R I B u 5 > X.X.X.X.X.X.",
"X.X.X.X.X.X.t y g x C M j t 6 ; X.X.X.X.X.X.",
"X.X.X.X.X.X.< < 8 d z m x f 8 < X.X.X.X.X.X.",
"X.X.X.X.X.X.: , 2 s n S D c t 8 X.X.X.X.X.X.",
"X.X.X.X.X.X.= : 1 a n S F M y 8 X.X.X.X.X.X.",
"X.X.X.X.X.X.= : < q h m M j q 8 X.X.X.X.X.X.",
"X.X.X.X.X.X.- - < 8 q y f t 6 > X.X.X.X.X.X.",
"X.X.X.X.X.X.& & ; > > 3 3 > - % $ $ X.X.X.X.",
"X.X.X.X.X.X.$ % % % $ $ $ $ $ $ $ $ X.X.X.X.",
"X.X.X.X.X.X.# # # # + + + + @ # # @ X.X.X.X.",
"X.X.X.X.X.X.+ + + O o X X o O + + + X.X.X.X.",
"X.X.X.X.    X X X X       . X X X X X.X.X.X.",
"X.X.X.X.                            X.X.X.X.",
"X.X.X.X.X.X.X.X.X.X.X.X.X.X.X.X.X.X.X.X.X.X.",
"X.X.X.X.X.X.X.X.X.X.X.X.X.X.X.X.X.X.X.X.X.X."
};
