/* XPM */
static const char *character00Walk_Sheet_21[] = {
/* columns rows colors chars-per-pixel */
"22 32 84 1 ",
"  c #050303",
". c #080604",
"X c #0C0905",
"o c #110C07",
"O c #140E09",
"+ c #151009",
"@ c #1A140C",
"# c #1E180E",
"$ c #241C11",
"% c #2B2216",
"& c #2E2519",
"* c #302517",
"= c #312719",
"- c #342A1C",
"; c #392D1E",
": c #352E23",
"> c #392F21",
", c #3C3224",
"< c #37342E",
"1 c #3A342C",
"2 c #3F382F",
"3 c #3B3732",
"4 c #3C3935",
"5 c #3B3A38",
"6 c #423524",
"7 c #473926",
"8 c #483A27",
"9 c #42372A",
"0 c #45392B",
"q c #4C3D2A",
"w c #433C34",
"e c #483E33",
"r c #4F402C",
"t c #53432E",
"y c #4C4034",
"u c #474038",
"i c #4C4339",
"p c #554531",
"a c #594734",
"s c #5B4A33",
"d c #50473D",
"f c #55483C",
"g c #5D4C3A",
"h c #614F36",
"j c #65533B",
"k c #68563B",
"l c #68573F",
"z c #6B593F",
"x c #6D5A3F",
"c c #594C41",
"v c #5E4F42",
"b c #5F5144",
"n c #635141",
"m c #675640",
"M c #665445",
"N c #685442",
"B c #695840",
"V c #6C5A43",
"C c #6F5D43",
"Z c #6B5944",
"A c #6C5B44",
"S c #6E5D46",
"D c #6E5A49",
"F c #6F5E48",
"G c #715A46",
"H c #725F45",
"J c #726046",
"K c #746248",
"L c #76644A",
"P c #75634C",
"I c #77654C",
"U c #79664C",
"Y c #7A684F",
"T c #7B6952",
"R c #7C6A51",
"E c #7E6C53",
"W c #7F6D55",
"Q c #806F57",
"! c #827056",
"~ c #847359",
"^ c #86745B",
"/ c #87755C",
"( c #88765D",
") c None",
/* pixels */
"))))))))))))))))))))))",
"))))))))))))))))))))))",
"))))))))--------))))))",
"))))))))66,,,,66))))))",
"))))agjjapttttpahgpt))",
"))))gjZSABjjjlVSAjgt))",
"))tsjFTQWRILIYWQWLjs86",
"))tsmPQ//^!Q!~((~TVsq6",
"))tsjJYQ^/^~^^^!ELxsq6",
"))tsjzHUEQQQQQEYKCjsq6",
"))qtshjVJKKKKKJCzjst76",
"))qqrtsjlzxVxxzjhaq766",
"))))67tsjkkklkjhtq6;))",
"))));,8tgjjjjjhsq6-=))",
"))))=;6rsghhhgst7;*%))",
"))))*-,7tttpptt86-%$))",
"))))-->,67777766,;))))",
")))),,,,,,,,,,,,,1))))",
"))))uw211,1111112wdc))",
"))))cdw31<<<<<13wicb))",
"))tanviw43444445ufMD))",
"))tajviw54555555efNG))",
"))))gae2355555430ygj))",
"))))ap9111111311,0ph))",
")))))),>,,::::,:-;))))",
"))))))**=&&%%&=*%%))))",
"))))))$$$$#@#$$$$#))))",
"))))))+@@+oXoO@@++))))",
"))))  XXXXX .XXXXX))))",
"))))              ))))",
"))))))))))))))))))))))",
"))))))))))))))))))))))"
};
