/* XPM */
static const char *character00Walk_Sheet_30[] = {
/* columns rows colors chars-per-pixel */
"22 32 90 1 ",
"  c #050502",
". c #090703",
"X c #0C0A05",
"o c #120E07",
"O c #161109",
"+ c #1A140B",
"@ c #1F180E",
"# c #221A0F",
"$ c #251D11",
"% c #2C2315",
"& c #2F2518",
"* c #312718",
"= c #34291B",
"- c #382D1F",
"; c #3C301F",
": c #2D2821",
"> c #332C24",
", c #3C3123",
"< c #3B342C",
"1 c #433624",
"2 c #463826",
"3 c #483B27",
"4 c #42372A",
"5 c #45392C",
"6 c #4C3D2A",
"7 c #463B32",
"8 c #493F34",
"9 c #4F402C",
"0 c #52422E",
"q c #4E4135",
"w c #4F443B",
"e c #554532",
"r c #584732",
"t c #5B4A35",
"y c #51443A",
"u c #56493E",
"i c #5C4C3A",
"p c #604F38",
"a c #64523B",
"s c #69553E",
"d c #5D4E41",
"f c #645345",
"g c #6C5641",
"h c #6D5A43",
"j c #64554A",
"k c #67594D",
"l c #6D5B4E",
"z c #715B44",
"x c #735D4C",
"c c #785F48",
"v c #6B5B50",
"b c #726047",
"n c #76634B",
"m c #7A654D",
"M c #7A684F",
"N c #756254",
"B c #7F6552",
"V c #7D6B52",
"C c #83674F",
"Z c #826B53",
"A c #886B55",
"S c #8A6D55",
"D c #8C6F57",
"F c #8B6E58",
"G c #827056",
"H c #8D705C",
"J c #90725C",
"K c #94745C",
"L c #947561",
"P c #977864",
"I c #9D7A63",
"U c #9C7B65",
"Y c #9F7C64",
"T c #A27E66",
"R c #A78169",
"E c #A98369",
"W c #AD866D",
"Q c #AF886F",
"! c #B78D73",
"~ c #B58D74",
"^ c #B98F74",
"/ c #BB9177",
"( c #C4967C",
") c #C89B81",
"_ c #CC9D81",
"` c #D0A085",
"' c #D5A386",
"] c #D5A487",
"[ c #DEAA8D",
"{ c None",
/* pixels */
"{{{{{{{{{{{{{{{{{{{{{{",
"{{{{{{{{{{{{{{{{{{{{{{",
"{{{{{{{{***==={{{{{{{{",
"{{{{{{{{,;,,11{{{{{{{{",
"{{{{1236690ertpt93{{{{",
"{{{{60etpasghhhae6{{{{",
"{{60tahznmmmVMnhie63{{",
"{{60ahmVZZVVVVnhar96{{",
"{{6eabVZGVVMmbhsat06{{",
"{{60ahmVVMmmmnzspr96{{",
"{{26tshhhzmZDSmhp031{{",
"{{16etaaszZKTYFnae31{{",
"{{{{0rtaacKW/~UZgt{{{{",
"{{{{60rpsCE(`)WJcs{{{{",
"{{{{230tzJ^'[]/Imz{{{{",
"{{{{116rzJ^`]_!TZz{{{{",
"{{{{{{10gAR~~QTK{{{{{{",
"{{{{{{,5ixHPLFBm{{{{{{",
"{{{{{{>,8dlNxfuy{{{{{{",
"{{{{{{:><wjvju7<{{{{{{",
"{{{{{{:><wvNld7<{{{{{{",
"{{{{{{:><wkNli7<{{{{{{",
"{{{{{{:><8dffr4>{{{{{{",
"{{{{{{=>,5qye3,={{{{{{",
"{{{{{{*=-,,,,-&%{{{{{{",
"{{{{{{%&***&%%$${{{{{{",
"{{{{XO@$$$$##@++{{{{{{",
"{{{{XXO+++OOOOoX{{{{{{",
"{{{{ .XXXXXXXX.   {{{{",
"{{{{              {{{{",
"{{{{{{{{{{{{{{{{{{{{{{",
"{{{{{{{{{{{{{{{{{{{{{{"
};
