/* XPM */
static const char *character00Walk_Sheet_7[] = {
/* columns rows colors chars-per-pixel */
"22 32 88 1 ",
"  c #060502",
". c #090704",
"X c #0C0A05",
"o c #130E08",
"O c #17120A",
"+ c #1A140C",
"@ c #1F180E",
"# c #211A0F",
"$ c #251D11",
"% c #2B2215",
"& c #2F2618",
"* c #302618",
"= c #342A1B",
"- c #2E2922",
"; c #342D23",
": c #3A2F21",
"> c #3C3123",
", c #3B342C",
"< c #433624",
"1 c #463925",
"2 c #483A27",
"3 c #41372C",
"4 c #45392B",
"5 c #4C3E2A",
"6 c #463B32",
"7 c #4A3F33",
"8 c #4F402B",
"9 c #52432E",
"0 c #4F443B",
"q c #554531",
"w c #584731",
"e c #5B4A34",
"r c #51453A",
"t c #56483D",
"y c #5A4A3A",
"u c #604D36",
"i c #604F38",
"p c #64523B",
"a c #69563E",
"s c #5D4E41",
"d c #645345",
"f c #6A5740",
"g c #6D5A43",
"h c #65564B",
"j c #6C5B4F",
"k c #715C45",
"l c #725D4B",
"z c #726047",
"x c #76634B",
"c c #7A644D",
"v c #7B684F",
"b c #756254",
"n c #7F6551",
"m c #7D6A51",
"M c #7F6C53",
"N c #7F6C54",
"B c #836952",
"V c #846850",
"C c #806E54",
"Z c #8A6C56",
"A c #8C6E57",
"S c #8B6E58",
"D c #827056",
"F c #8C705B",
"G c #917158",
"H c #94745C",
"J c #947560",
"K c #9D7A63",
"L c #9F7B64",
"P c #A27D65",
"I c #A58168",
"U c #AA8369",
"Y c #AE876D",
"T c #AF886F",
"R c #B78D73",
"E c #B68D74",
"W c #B98F74",
"Q c #BB9177",
"! c #BC9177",
"~ c #C5977C",
"^ c #C99B80",
"/ c #CC9D81",
"( c #D0A083",
") c #D1A185",
"_ c #D5A386",
"` c #D5A487",
"' c #DEAA8D",
"] c None",
/* pixels */
"]]]]]]]]]]]]]]]]]]]]]]",
"]]]]]]]]]]]]]]]]]]]]]]",
"]]]]]]]]======]]]]]]]]",
"]]]]]]]]<<>>>>]]]]]]]]",
"]]]]28eieq9985551<]]]]",
"]]]]59pgggappieq95]]]]",
"]]259egxvmcxxxkgpe95]]",
"]]58wpgxmNMMCCMcgpq8]]",
"]]59epakxccmCCDmzpw9]]",
"]]58wpakxcccvmmcgp98]]",
"]]159igcZABckkkgpe52]]",
"]]<5qpxSLPHBkappeq5<]]",
"]]]]egBLE!YHxapew9]]]]",
"]]]]alGY^)~UVauq95]]]]",
"]]]]kcKQ`'_WGke92<]]]]",
"]]]]kVPR/`(WGkw5<<]]]]",
"]]]]]]HPTERIZf9<]]]]]]",
"]]]]]]cnSJJFly4>]]]]]]",
"]]]]]]rydlbjs7>;]]]]]]",
"]]]]]],6tdjh0,;-]]]]]]",
"]]]]]],6sjbhr,;-]]]]]]",
"]]]]]],6sjbh0,;-]]]]]]",
"]]]]]]>4ydds7,;;]]]]]]",
"]]]]]];>5rr73>;=]]]]]]",
"]]]]]]*=:>>::===*&]]]]",
"]]]]]]%%%%%%%&**&%]]]]",
"]]]]]]###@OO+@$$$$]]]]",
"]]]]]]OOOoXXXoO+++]]]]",
"]]]]  .XX.  ..XXXX]]]]",
"]]]]              ]]]]",
"]]]]]]]]]]]]]]]]]]]]]]",
"]]]]]]]]]]]]]]]]]]]]]]"
};
