/* XPM */
static const char *character00Walk_Sheet_9[] = {
/* columns rows colors chars-per-pixel */
"22 32 98 2 ",
"   c #050402",
".  c #080703",
"X  c #0B0905",
"o  c #100D07",
"O  c #151009",
"+  c #1B160D",
"@  c #1E180E",
"#  c #221B11",
"$  c #2B2216",
"%  c #312619",
"&  c #362B1B",
"*  c #372E22",
"=  c #392F23",
"-  c #3D3122",
";  c #3E382F",
":  c #3F3931",
">  c #433525",
",  c #463827",
"<  c #443A2D",
"1  c #4C3D2B",
"2  c #493D30",
"3  c #443F39",
"4  c #4F402D",
"5  c #51422E",
"6  c #4F4233",
"7  c #46423D",
"8  c #4B443B",
"9  c #554532",
"0  c #5B4A35",
"q  c #52473C",
"w  c #574A3D",
"e  c #5E4E39",
"r  c #614F3A",
"t  c #64513C",
"y  c #69553F",
"u  c #4A4642",
"i  c #4C4945",
"p  c #4E4D4A",
"a  c #534B43",
"s  c #594E43",
"d  c #544F4A",
"f  c #5A5046",
"g  c #575049",
"h  c #5C534B",
"j  c #565350",
"k  c #585653",
"l  c #5E5852",
"z  c #645344",
"x  c #6A5641",
"c  c #6D5B44",
"v  c #63564A",
"b  c #66594F",
"n  c #6A5A4C",
"m  c #715C46",
"M  c #755E49",
"N  c #785F49",
"B  c #625952",
"V  c #6B5D52",
"C  c #75624A",
"Z  c #7A634D",
"A  c #746153",
"S  c #7B6553",
"D  c #7D6A52",
"F  c #75655A",
"G  c #80644E",
"H  c #836A54",
"J  c #896D56",
"K  c #826A59",
"L  c #8F725A",
"P  c #8E715D",
"I  c #90725B",
"U  c #93735D",
"Y  c #91745C",
"T  c #98775F",
"R  c #8C7260",
"E  c #917460",
"W  c #947865",
"Q  c #9B7A62",
"!  c #9C7A63",
"~  c #987964",
"^  c #9D7C65",
"/  c #A17D65",
"(  c #A47F68",
")  c #A6826A",
"_  c #A7846D",
"`  c #A9856D",
"'  c #AD876E",
"]  c #AF8970",
"[  c #B28B71",
"{  c #B68E75",
"}  c #BC9279",
"|  c #C1967C",
" . c #C6997E",
".. c #CA9C81",
"X. c #CD9E82",
"o. c #CFA083",
"O. c #D1A185",
"+. c None",
/* pixels */
"+.+.+.+.+.+.+.+.+.+.+.+.+.+.+.+.+.+.+.+.+.+.",
"+.+.+.+.+.+.+.+.+.+.+.+.+.+.+.+.+.+.+.+.+.+.",
"+.+.+.+.+.+.+.+.& & & & & & +.+.+.+.+.+.+.+.",
"+.+.+.+.+.+.+.+.> - - - - > +.+.+.+.+.+.+.+.",
"+.+.+.+., 1 5 9 5 5 5 5 5 5 9 1 , - - - +.+.",
"+.+.+.+.1 5 0 r r t t t t t 0 9 1 1 , , +.+.",
"+.+.1 4 9 r x c c c c m C m y t t e 0 9 1 , ",
"+.+.1 5 e x C C C C Z D D Z c x c c x e 4 , ",
"+.+.1 9 t c C C C Z D H D Z x x c m c t 5 , ",
"+.+.1 9 t x c c c C D H D Z c c m c x e 1 , ",
"+.+., 1 9 0 r t t x C D D D Z M m y e 5 > - ",
"+.+., 1 5 0 t x c M H J L Y L J Z y 0 1 - & ",
"+.+.+.+.9 r N H J I Q ) ] [ ' / J M 0 1 +.+.",
"+.+.+.+.0 x J Q ^ ) [ }  . .} ' ! G 0 1 +.+.",
"+.+.+.+.t M T ` ` [  .o.O...} ] ( J r 5 +.+.",
"+.+.+.+.r m U ) _ [  .X...| [ ) ! J t 5 +.+.",
"+.+.+.+.9 r Z P ~ ) [ { { ' / U J Z +.+.+.+.",
"+.+.+.+.6 w v A K R W ~ W E J S M n +.+.+.+.",
"+.+.+.+.s f h v b V F F F A n z v v v h +.+.",
"+.+.+.+.n B h d d g l B B h s s h b b V +.+.",
"+.+.5 r A S B g a p j k j d a s b A S S +.+.",
"+.+.5 r S S n s u u p p p i 8 a v A S H +.+.",
"+.+.+.+.Z M z q 7 3 7 7 7 7 3 8 e x m M +.+.",
"+.+.+.+.M x 9 2 < ; : : : : < < 6 0 t c +.+.",
"+.+.+.+.+.+., - - - * * = - - - - > +.+.+.+.",
"+.+.+.+.+.+.% % % % $ $ $ % % % $ $ +.+.+.+.",
"+.+.+.+.+.+.# # # # + + + @ # # + + +.+.+.+.",
"+.+.+.+.+.+.O O O O X X X o O O o X +.+.+.+.",
"+.+.+.+.    . X X X       . X X X . +.+.+.+.",
"+.+.+.+.                            +.+.+.+.",
"+.+.+.+.+.+.+.+.+.+.+.+.+.+.+.+.+.+.+.+.+.+.",
"+.+.+.+.+.+.+.+.+.+.+.+.+.+.+.+.+.+.+.+.+.+."
};
