/* XPM */
static const char *character00Walk_Sheet_2[] = {
/* columns rows colors chars-per-pixel */
"22 32 99 2 ",
"   c #050403",
".  c #080704",
"X  c #0C0905",
"o  c #110D07",
"O  c #130F08",
"+  c #161109",
"@  c #1A140C",
"#  c #1F180E",
"$  c #211A0F",
"%  c #251E12",
"&  c #2C2316",
"*  c #2C251A",
"=  c #302719",
"-  c #342A1B",
";  c #3D311F",
":  c #2E2921",
">  c #322C24",
",  c #382F24",
"<  c #322E28",
"1  c #3D3223",
"2  c #35312B",
"3  c #3B342C",
"4  c #3A3632",
"5  c #3E3935",
"6  c #433624",
"7  c #463926",
"8  c #483A27",
"9  c #43372A",
"0  c #44392D",
"q  c #4C3D2A",
"w  c #453C33",
"e  c #4F402C",
"r  c #52422E",
"t  c #4B423A",
"y  c #554531",
"u  c #584732",
"i  c #5C4B35",
"p  c #54463A",
"a  c #56483C",
"s  c #5F4E38",
"d  c #614F39",
"f  c #64523B",
"g  c #69563E",
"h  c #4C4641",
"j  c #4E4843",
"k  c #544A41",
"l  c #5B4D42",
"z  c #5D524A",
"x  c #665547",
"c  c #695740",
"v  c #6D5A43",
"b  c #63564C",
"n  c #67584C",
"m  c #69584C",
"M  c #715C45",
"N  c #755E48",
"B  c #655B54",
"V  c #6B5D52",
"C  c #705F52",
"Z  c #76624A",
"A  c #7A644C",
"S  c #7B684F",
"D  c #726054",
"F  c #7F6451",
"G  c #7D6A52",
"H  c #75675D",
"J  c #7B695C",
"K  c #83684F",
"L  c #826C53",
"P  c #896B54",
"I  c #8A6E56",
"U  c #8C6F57",
"Y  c #8A6D5A",
"T  c #8F725C",
"R  c #917259",
"E  c #94745C",
"W  c #927460",
"Q  c #957663",
"!  c #9D7B63",
"~  c #9F7C64",
"^  c #A27E65",
"/  c #A68168",
"(  c #A98369",
")  c #AE876D",
"_  c #B0886F",
"`  c #AC8870",
"'  c #B78D73",
"]  c #B68E74",
"[  c #BA8F74",
"{  c #BB9075",
"}  c #BC9177",
"|  c #C4977C",
" . c #C99B81",
".. c #CD9D82",
"X. c #D0A084",
"o. c #D5A386",
"O. c #D5A487",
"+. c #DEAA8D",
"@. c None",
/* pixels */
"@.@.@.@.@.@.@.@.@.@.@.@.@.@.@.@.@.@.@.@.@.@.",
"@.@.@.@.@.@.@.@.@.@.@.@.@.@.@.@.@.@.@.@.@.@.",
"@.@.@.@.@.@.@.@.- - - - - - @.@.@.@.@.@.@.@.",
"@.@.@.@.@.@.@.@.6 6 1 1 ; 1 @.@.@.@.@.@.@.@.",
"@.@.@.@.7 q i d i y r r e q q q 7 6 @.@.@.@.",
"@.@.@.@.q r d c v v g f f d i y r q @.@.@.@.",
"@.@.8 q r s v Z G G A Z Z Z M v f i r q @.@.",
"@.@.q e u f v Z G G G G L L G A v f y q @.@.",
"@.@.q r u f g M Z A A G L L L G M f u r @.@.",
"@.@.q e u d g M Z A A A S G G A v f y e @.@.",
"@.@.7 q r d v A I U L Z M M M v f i q 8 @.@.",
"@.@.6 q y f Z I ~ ^ E L M g f f s y q 6 @.@.",
"@.@.@.@.s v L ~ ] } ) E Z f f s u r @.@.@.@.",
"@.@.@.@.g N T `  .X.| ( K g s y r q @.@.@.@.",
"@.@.@.@.M A ! { O.+.o.{ R M s r 8 6 @.@.@.@.",
"@.@.@.@.M L ^ ' ..O.X.[ R M u q 6 1 @.@.@.@.",
"@.@.@.@.@.@.E ^ _ [ ] / P c r 6 @.@.@.@.@.@.",
"@.@.@.@.@.@.A F Y W Q T A d 8 1 @.@.@.@.@.@.",
"@.@.@.@.@.@.p a l m D C x a 9 , @.@.@.@.@.@.",
"@.@.@.@.@.@.3 3 w k b V n l w 3 @.@.@.@.@.@.",
"@.@.@.@.@.@.< 2 5 j B H J V k t @.@.@.@.@.@.",
"@.@.@.@.@.@.: < 4 h B H J D l t @.@.@.@.@.@.",
"@.@.@.@.@.@.: < 3 t z V C x t w @.@.@.@.@.@.",
"@.@.@.@.@.@.* > 2 w p l l p 0 3 @.@.@.@.@.@.",
"@.@.@.@.@.@.& * - 1 9 0 9 1 > - @.@.@.@.@.@.",
"@.@.@.@.@.@.% % & - - - = & & % @.@.@.@.@.@.",
"@.@.@.@.@.@.@ # % % % % % $ $ @ O X @.@.@.@.",
"@.@.@.@.@.@.o + @ @ @ + + + + O X X @.@.@.@.",
"@.@.@.@.    . X X X X X X X X . . . @.@.@.@.",
"@.@.@.@.        .                   @.@.@.@.",
"@.@.@.@.@.@.@.@.@.@.@.@.@.@.@.@.@.@.@.@.@.@.",
"@.@.@.@.@.@.@.@.@.@.@.@.@.@.@.@.@.@.@.@.@.@."
};
