/* XPM */
static const char *character00Walk_Sheet_20[] = {
/* columns rows colors chars-per-pixel */
"22 32 81 1 ",
"  c #040201",
". c #080602",
"X c #0C0905",
"o c #110C07",
"O c #161009",
"+ c #1A140C",
"@ c #231C11",
"# c #281E11",
"$ c #2E2416",
"% c #2E251A",
"& c #312718",
"* c #352B1D",
"= c #382C1D",
"- c #3C301F",
"; c #352E23",
": c #382F22",
"> c #352F28",
", c #373027",
"< c #3C3223",
"1 c #37332E",
"2 c #3A342C",
"3 c #3A3632",
"4 c #3B3936",
"5 c #3B3A39",
"6 c #423523",
"7 c #473926",
"8 c #483B27",
"9 c #433729",
"0 c #41392D",
"q c #4B3D29",
"w c #443C35",
"e c #4C3F31",
"r c #473F38",
"t c #4F402C",
"y c #53442E",
"u c #4C433A",
"i c #544531",
"p c #584731",
"a c #574835",
"s c #5B4B33",
"d c #53473B",
"f c #55483D",
"g c #5D4D39",
"h c #604F36",
"j c #625037",
"k c #64533B",
"l c #69573D",
"z c #6B593E",
"x c #6C593F",
"c c #594C41",
"v c #5F5144",
"b c #675342",
"n c #665445",
"m c #6B5B43",
"M c #6F5D42",
"N c #6A5A44",
"B c #6C5B44",
"V c #6E5D46",
"C c #6E5A49",
"Z c #6F5E49",
"A c #705A46",
"S c #725F45",
"D c #726045",
"F c #746247",
"G c #75634B",
"H c #76644A",
"J c #75644C",
"K c #79674C",
"L c #7A694F",
"P c #7B6952",
"I c #7C6A50",
"U c #7E6C53",
"Y c #7F6D55",
"T c #816F56",
"R c #827056",
"E c #837258",
"W c #847359",
"Q c #86745B",
"! c #87755C",
"~ c #88765D",
"^ c None",
/* pixels */
"^^^^^^^^^^^^^^^^^^^^^^",
"^^^^^^^^^^^^^^^^^^^^^^",
"^^^^^^^^********^^^^^^",
"^^^^^^^^6<<<<<66^^^^^^",
"^^^^agkksiytyyishgit^^",
"^^^^gkNVNmkkklmVBksi^^",
"^^yakZPTYPJGJLYTYJka8<",
"^^yakJT!!QRTRW~~WImsq6",
"^^yakDLRQ!WWQQQEUHxsq6",
"^^yajzDKUTTTTTULGMkaq6",
"^^tyajlmSGFFGDDMzkay76",
"^^qtyysklxxxxzlkhpt76<",
"^^^^68ysklllllkhyq6=^^",
"^^^^=<qysjkkkjhat6*&^^",
"^^^^&=6tashhhsay8-&$^^",
"^^^^$*-7yyyiyyyq6=$#^^",
"^^^^%&=<67777776<=^^^^",
"^^^^%&*=<<<<<<<,,,^^^^",
"^^^^;;;;,22,,,222wdc^^",
"^^^^>>>>11111113wucv^^",
"^^;;221133444445rfnC^^",
"^^=;222234555555rdbA^^",
"^^^^2221345555440egk^^",
"^^^^02,,22222222,9ig^^",
"^^^^^^;;;;;;;;,;*=^^^^",
"^^^^^^$%%%%%&;:=*&^^^^",
"^^^^^^@@@@++^^^^^^^^^^",
"^^^^^^OOOOoX^^^^^^^^^^",
"^^^^  XXXX.       ^^^^",
"^^^^              ^^^^",
"^^^^^^^^^^^^^^^^^^^^^^",
"^^^^^^^^^^^^^^^^^^^^^^"
};
