/* XPM */
static const char *character00Walk_Sheet_10[] = {
/* columns rows colors chars-per-pixel */
"22 32 97 2 ",
"   c #040201",
".  c #080603",
"X  c #0C0905",
"o  c #110C07",
"O  c #161109",
"+  c #1B140C",
"@  c #241C11",
"#  c #2D2317",
"$  c #2E2518",
"%  c #302618",
"&  c #352A1B",
"*  c #382D1F",
"=  c #372E22",
"-  c #382F22",
";  c #3D3223",
":  c #3C352C",
">  c #3D3730",
",  c #3E3933",
"<  c #423525",
"1  c #463826",
"2  c #433728",
"3  c #463A2A",
"4  c #4B3D2B",
"5  c #503F2D",
"6  c #433C33",
"7  c #4B3F30",
"8  c #413E3A",
"9  c #4F402D",
"0  c #51422E",
"q  c #4C4134",
"w  c #44413C",
"e  c #4B4239",
"r  c #544531",
"t  c #584733",
"y  c #5B4A35",
"u  c #5E4D39",
"i  c #614F3A",
"p  c #63513C",
"a  c #69553F",
"s  c #464441",
"d  c #4D4945",
"f  c #4E4D4C",
"g  c #544C44",
"h  c #534F4A",
"j  c #57524D",
"k  c #5C544D",
"l  c #555452",
"z  c #585755",
"x  c #5E5954",
"c  c #615042",
"v  c #695741",
"b  c #6D5A43",
"n  c #62564C",
"m  c #66594F",
"M  c #6B5A4C",
"N  c #715D46",
"B  c #735F4B",
"V  c #785F49",
"C  c #605B56",
"Z  c #6A5C52",
"A  c #75624A",
"S  c #7A644D",
"D  c #6F6156",
"F  c #746253",
"G  c #7C6554",
"H  c #7E6A52",
"J  c #74665B",
"K  c #80644E",
"L  c #846B55",
"P  c #896C56",
"I  c #866D5B",
"U  c #8D6F58",
"Y  c #817057",
"T  c #8E725C",
"R  c #90725B",
"E  c #91745C",
"W  c #907462",
"Q  c #957866",
"!  c #9A7A62",
"~  c #9C7A62",
"^  c #9D7B65",
"/  c #987B68",
"(  c #A17E66",
")  c #A6826B",
"_  c #AA856E",
"`  c #AD876F",
"'  c #AF8971",
"]  c #B28B72",
"[  c #B58E75",
"{  c #BC9279",
"}  c #C1967C",
"|  c #C6997E",
" . c #CA9C81",
".. c #CC9E82",
"X. c #CFA083",
"o. c #D1A185",
"O. c None",
/* pixels */
"O.O.O.O.O.O.O.O.O.O.O.O.O.O.O.O.O.O.O.O.O.O.",
"O.O.O.O.O.O.O.O.O.O.O.O.O.O.O.O.O.O.O.O.O.O.",
"O.O.O.O.O.O.O.O.& & & & & & O.O.O.O.O.O.O.O.",
"O.O.O.O.O.O.O.O.< ; ; ; ; < O.O.O.O.O.O.O.O.",
"O.O.O.O.1 4 0 r 0 9 9 0 0 0 r 9 1 ; ; ; O.O.",
"O.O.O.O.4 0 y i i i p p p p y r 9 4 3 3 O.O.",
"O.O.4 9 t i v b b b N N A N a p p u y r 4 1 ",
"O.O.4 0 u v A A A A S H H S b v b b v u 9 1 ",
"O.O.4 r p b A A A A H Y H S b v b N b p 0 1 ",
"O.O.4 r p v b b b A H L H S N b N b v u 4 1 ",
"O.O.3 4 r y i p p b A H H H S A N a u r 3 2 ",
"O.O.1 4 0 y p v b V H P T E T P S a y 4 2 ; ",
"O.O.O.O.0 i V L P R ! ) ' ] ` ( U V y 4 O.O.",
"O.O.O.O.y v P ~ ^ ) ] { | | { ` ~ K u 4 O.O.",
"O.O.O.O.p V E _ _ ] | X.o. .{ ' ) P i 0 O.O.",
"O.O.O.O.i N E ) _ ] | .. .} ] ) ^ P p 5 O.O.",
"O.O.O.O.r u S T ! ) ] [ [ ` ( E L G O.O.O.O.",
"O.O.O.O.3 q c B L T Q / Q W I G B M O.O.O.O.",
"O.O.O.O.6 6 e g n Z J J J D Z n n n n n O.O.",
"O.O.O.O.6 6 6 w d j x C x l h g k m Z Z O.O.",
"O.O.; 2 7 q 6 8 s f l z l h d g m F G G O.O.",
"O.O.; 2 4 7 6 , w s f f f d s g n F G L O.O.",
"O.O.O.O.3 3 : : , 8 w s w 8 8 e u v N V O.O.",
"O.O.O.O.3 2 ; : : > > > > > : 3 7 t p b O.O.",
"O.O.O.O.O.O.= = - - - = = ; ; ; ; < O.O.O.O.",
"O.O.O.O.O.O.$ $ % % # $ & = - * & & O.O.O.O.",
"O.O.O.O.O.O.@ @ @ @ + + O.O.O.O.O.O.O.O.O.O.",
"O.O.O.O.O.O.O O O O o X O.O.O.O.O.O.O.O.O.O.",
"O.O.O.O.    X X X X .               O.O.O.O.",
"O.O.O.O.                            O.O.O.O.",
"O.O.O.O.O.O.O.O.O.O.O.O.O.O.O.O.O.O.O.O.O.O.",
"O.O.O.O.O.O.O.O.O.O.O.O.O.O.O.O.O.O.O.O.O.O."
};
