/* XPM */
static const char *character00Walk_Sheet_18[] = {
/* columns rows colors chars-per-pixel */
"22 32 75 1 ",
"  c #040201",
". c #080602",
"X c #0C0905",
"o c #110C07",
"O c #161009",
"+ c #1A140C",
"@ c #231C11",
"# c #281F11",
"$ c #2E2416",
"% c #2E251A",
"& c #312718",
"* c #352B1D",
"= c #382D1D",
"- c #3B301F",
"; c #352E23",
": c #382F21",
"> c #352F28",
", c #373026",
"< c #3C3223",
"1 c #37332D",
"2 c #3A342B",
"3 c #3A3632",
"4 c #3C3935",
"5 c #3C3A39",
"6 c #423523",
"7 c #473A26",
"8 c #483A27",
"9 c #42392C",
"0 c #4B3D29",
"q c #463D33",
"w c #4A3F34",
"e c #4E402B",
"r c #52432E",
"t c #4E4132",
"y c #544531",
"u c #5B4A33",
"i c #524538",
"p c #5D4D38",
"a c #604E36",
"s c #624E3D",
"d c #64523A",
"f c #64503F",
"g c #64543E",
"h c #6A573B",
"j c #68573D",
"k c #6B593F",
"l c #6C593F",
"z c #675341",
"x c #675740",
"c c #6D5642",
"v c #6D5B41",
"b c #6F5D43",
"n c #6A5A45",
"m c #6C5B44",
"M c #6E5D47",
"N c #715F45",
"B c #705F48",
"V c #736247",
"C c #746247",
"Z c #76644B",
"A c #77654D",
"S c #78664C",
"D c #7B694F",
"F c #7B6A52",
"G c #7C6A50",
"H c #7E6C52",
"J c #7E6D55",
"K c #816F56",
"L c #827057",
"P c #837258",
"I c #847359",
"U c #85745A",
"Y c #87755C",
"T c #88765D",
"R c None",
/* pixels */
"RRRRRRRRRRRRRRRRRRRRRR",
"RRRRRRRRRRRRRRRRRRRRRR",
"RRRRRRRR********RRRRRR",
"RRRRRRRR66<<<666RRRRRR",
"RRRRupgguyrrryyuppyeRR",
"RRRRpgnMnngggxnMmguyRR",
"RRrugBFKJFAZAFJKJAgu8<",
"RRrugZKYYULKLIYTIGvu06",
"RRrugVDKUYIIUUUPHZku06",
"RRrudkNSHKKKKKHDZbgu06",
"RReruahvNVVCZVVbkdur76",
"RR00rrudjklllkjgaue766",
"RRRR68rudhhhhhday06-RR",
"RRRR=-0rpdddddaue6*&RR",
"RRRR&=6euppaapur7-&$RR",
"RRRR$*-7rryyrrr0<=$#RR",
"RRRR$&=<6777776<:=RRRR",
"RRRR%&*:<<<<<<<<;,RRRR",
"RRRR;;;;,2,,,22222qwRR",
"RRRR>>>>111111233qtiRR",
"RR;;221133444444qiszRR",
"RR=;222234555544qifcRR",
"RRRR2222345554439tpsRR",
"RRRR92,22333332229yaRR",
"RRRRRR;;;;;;;,,;==RRRR",
"RRRRRR$$$$$$&;:=&&RRRR",
"RRRRRR@@@@++RRRRRRRRRR",
"RRRRRROOOOoXRRRRRRRRRR",
"RRRR  XXXX.       RRRR",
"RRRR              RRRR",
"RRRRRRRRRRRRRRRRRRRRRR",
"RRRRRRRRRRRRRRRRRRRRRR"
};
