/* XPM */
static const char *character00Walk_Sheet_15[] = {
/* columns rows colors chars-per-pixel */
"22 32 102 2 ",
"   c #030201",
".  c #090604",
"X  c #0D0A06",
"o  c #130E09",
"O  c #17120B",
"+  c #1A140C",
"@  c #241D12",
"#  c #272117",
"$  c #2C2216",
"%  c #2B251A",
"&  c #2D281E",
"*  c #312619",
"=  c #342A1C",
"-  c #3B2F1E",
";  c #2F2921",
":  c #332C23",
">  c #322E28",
",  c #3D3222",
"<  c #35312C",
"1  c #3A342C",
"2  c #393630",
"3  c #3E3A34",
"4  c #423523",
"5  c #463926",
"6  c #483A27",
"7  c #44392C",
"8  c #4C3E2A",
"9  c #453B30",
"0  c #493D32",
"q  c #413E3B",
"w  c #4E402D",
"e  c #52422E",
"r  c #4D4137",
"t  c #43413D",
"y  c #4A433C",
"u  c #544532",
"i  c #5B4A35",
"p  c #56493D",
"a  c #5E4E3A",
"s  c #614F3A",
"d  c #63523C",
"f  c #69543F",
"g  c #454442",
"h  c #4C4A47",
"j  c #4D4D4B",
"k  c #524C45",
"l  c #5B4F45",
"z  c #524D48",
"x  c #55524F",
"c  c #5B544C",
"v  c #575552",
"b  c #5B5550",
"n  c #5E5852",
"m  c #665445",
"M  c #6A5740",
"N  c #6C5A43",
"B  c #62554B",
"V  c #695748",
"C  c #66584E",
"Z  c #6C5848",
"A  c #715D46",
"S  c #765F4A",
"D  c #785F49",
"F  c #6B5C50",
"G  c #74624A",
"H  c #7A634D",
"J  c #6F6054",
"K  c #746154",
"L  c #7B6452",
"P  c #7D6A52",
"I  c #746559",
"U  c #80644E",
"Y  c #836B55",
"T  c #8A6D56",
"R  c #856B5A",
"E  c #8E725C",
"W  c #91735D",
"Q  c #91745C",
"!  c #907462",
"~  c #957764",
"^  c #987760",
"/  c #967866",
"(  c #9B7B62",
")  c #9C7A63",
"_  c #9D7C65",
"`  c #A07D65",
"'  c #A48067",
"]  c #A5816A",
"[  c #AA856E",
"{  c #AC876E",
"}  c #AF8970",
"|  c #B28B71",
" . c #B28C73",
".. c #B68D74",
"X. c #BC9279",
"o. c #C1967C",
"O. c #C6997E",
"+. c #CA9C81",
"@. c #CD9E83",
"#. c #CFA084",
"$. c #D1A185",
"%. c None",
/* pixels */
"%.%.%.%.%.%.%.%.%.%.%.%.%.%.%.%.%.%.%.%.%.%.",
"%.%.%.%.%.%.%.%.%.%.%.%.%.%.%.%.%.%.%.%.%.%.",
"%.%.%.%.%.%.%.%.= = = = = = %.%.%.%.%.%.%.%.",
"%.%.%.%.%.%.%.%.4 , , , , 4 %.%.%.%.%.%.%.%.",
"%.%.%.%.5 8 e u e e e e e e u w 5 , , , %.%.",
"%.%.%.%.8 e i s s d d d d d i u w 8 6 6 %.%.",
"%.%.8 e i s M N N N N G G A f d d a a u 8 5 ",
"%.%.8 e s M G G G G H P P H N M N N M a w 5 ",
"%.%.8 u d N G G G G P Y P H M M A A N d e 6 ",
"%.%.8 u d M N N N G P Y P H A N A N M a 8 5 ",
"%.%.6 8 u i a d d M G P P P H S A f a e 5 , ",
"%.%.5 8 e i d M N S Y T E Q E T H f i 8 4 - ",
"%.%.%.%.u s S Y T W ( ] } | { ` T A i 8 %.%.",
"%.%.%.%.i M T ( _ ] | X.O.O.X.{ ( U i 8 %.%.",
"%.%.%.%.d D ^ [ [  .O.#.$.+.X.} ' T s e %.%.",
"%.%.%.%.s A W ] [  .O.@.+.o.| ] ) T f e %.%.",
"%.%.%.%.u a H E ( ] | ..| { _ W T H %.%.%.%.",
"%.%.%.%.7 u m L R E ~ / / ! R L V l %.%.%.%.",
"%.%.%.%.9 r l C F J I I I K C l y 3 : # %.%.",
"%.%.%.%.u p B C C c n n n b z y 3 > % # %.%.",
"%.%.%.%.m V K K C c x v v x h q 2 : % # %.%.",
"%.%.%.%.N S L K B k h j j j g 3 < ; % # %.%.",
"%.%.%.%.%.%.S Z p y t t g g q 2 > ; %.%.%.%.",
"%.%.%.%.%.%.A s 0 1 1 2 3 3 3 1 : = %.%.%.%.",
"%.%.%.%.%.%.%.%.: = & : : , , , = * %.%.%.%.",
"%.%.%.%.%.%.%.%.% # @ @ $ * = = $ $ %.%.%.%.",
"%.%.%.%.%.%.%.%.%.%.o o + @ @ @ @ @ %.%.%.%.",
"%.%.%.%.%.%.%.%.%.%.. . X o O + + + %.%.%.%.",
"%.%.%.%.                  . X X X X %.%.%.%.",
"%.%.%.%.                    . . . . %.%.%.%.",
"%.%.%.%.%.%.%.%.%.%.%.%.%.%.%.%.%.%.%.%.%.%.",
"%.%.%.%.%.%.%.%.%.%.%.%.%.%.%.%.%.%.%.%.%.%."
};
