/* XPM */
static const char *character00Walk_Sheet_25[] = {
/* columns rows colors chars-per-pixel */
"22 32 81 1 ",
"  c #030301",
". c #080703",
"X c #0C0A05",
"o c #120E08",
"O c #16120A",
"+ c #1A150C",
"@ c #231C10",
"# c #292114",
"$ c #2F2619",
"% c #302719",
"& c #352A1A",
"* c #3C301F",
"= c #2E2921",
"- c #322C24",
"; c #373027",
": c #3C3122",
"> c #373129",
", c #39322A",
"< c #423624",
"1 c #463825",
"2 c #483B27",
"3 c #40372C",
"4 c #463A2B",
"5 c #4C3D29",
"6 c #463C32",
"7 c #483E33",
"8 c #4F402C",
"9 c #52432E",
"0 c #4D4135",
"q c #554531",
"w c #5B4A35",
"e c #56473B",
"r c #574A3E",
"t c #5C4D3C",
"y c #604F38",
"u c #64523B",
"i c #69553E",
"p c #5B4E42",
"a c #625244",
"s c #6A5740",
"d c #6D5A43",
"f c #6C5B4D",
"g c #715C45",
"h c #755E48",
"j c #795F4E",
"k c #725E50",
"l c #76624B",
"z c #7A654D",
"x c #7B684F",
"c c #766355",
"v c #7A6555",
"b c #7D6B52",
"n c #836952",
"m c #846851",
"M c #806D54",
"N c #8A6D55",
"B c #8C6F57",
"V c #8B6F58",
"C c #8F725C",
"Z c #907158",
"A c #94745C",
"S c #947560",
"D c #977863",
"F c #9D7B63",
"G c #9F7C64",
"H c #A27E65",
"J c #A68269",
"K c #A98369",
"L c #AD876D",
"P c #B0886F",
"I c #B58E74",
"U c #B98F74",
"Y c #BB9177",
"T c #C4977C",
"R c #C89B81",
"E c #CD9D82",
"W c #D0A185",
"Q c #D5A386",
"! c #D5A487",
"~ c #DEAA8D",
"^ c None",
/* pixels */
"^^^^^^^^^^^^^^^^^^^^^^",
"^^^^^^^^^^^^^^^^^^^^^^",
"^^^^^^^^%%%&&&^^^^^^^^",
"^^^^^^^^:*::<1^^^^^^^^",
"^^^^1125589qqwyw82^^^^",
"^^^^59qwyuisddsuq5^^^^",
"^^59wusglzzzbxlstq52^^",
"^^59udzbMMbbbblduw82^^",
"^^5qugbMMbbzzldiuw95^^",
"^^59udzbbxzzzlgiyw82^^",
"^^28widddgznBNzdy921^^",
"^^15qwuuignAHGVluq2<^^",
"^^^^9wwuulALYIGnsw^^^^",
"^^^^59qyimKTWRLChi^^^^",
"^^^^129wgZUQ~!YFzg^^^^",
"^^^^<12wgZUW!EIHmg^^^^",
"^^^^^^<9sNJIUPHA^^^^^^",
"^^^^^^:4tlCDSVvj^^^^^^",
"^^^^^^-,0akcfaeq^^^^^^",
"^^^^^^=;6pffp0,>^^^^^^",
"^^^^^^=,0avcp7>-^^^^^^",
"^^^^^^-,0avvp6-=^^^^^^",
"^^^^^^-,7pffr6-=^^^^^^",
"^^^^^^-,30tt03-=^^^^^^",
"^^^^^^^^:,44<:^^^^^^^^",
"^^^^^^^^#%&&&$^^^^^^^^",
"^^^^   X+@###@+o^^^^^^",
"^^^^   .oO+++OoX^^^^^^",
"^^^^    .XXXXXX   ^^^^",
"^^^^              ^^^^",
"^^^^^^^^^^^^^^^^^^^^^^",
"^^^^^^^^^^^^^^^^^^^^^^"
};
