/* XPM */
static const char *character00Walk_Sheet_31[] = {
/* columns rows colors chars-per-pixel */
"22 32 93 2 ",
"   c #060402",
".  c #080603",
"X  c #0D0A05",
"o  c #130F08",
"O  c #17120A",
"+  c #1A140B",
"@  c #1E180E",
"#  c #221A0F",
"$  c #261D11",
"%  c #2C2315",
"&  c #302718",
"*  c #33291B",
"=  c #3C301F",
"-  c #2E2921",
";  c #332C23",
":  c #392F22",
">  c #3C3123",
",  c #3B342C",
"<  c #3E3730",
"1  c #433624",
"2  c #473825",
"3  c #483A27",
"4  c #40362C",
"5  c #45392B",
"6  c #4C3E2A",
"7  c #463D33",
"8  c #493E33",
"9  c #4F402C",
"0  c #52422E",
"q  c #4E443B",
"w  c #544531",
"e  c #584732",
"r  c #5B4B35",
"t  c #51453C",
"y  c #57493C",
"u  c #5E4D39",
"i  c #604F38",
"p  c #64523B",
"a  c #69553E",
"s  c #5C4D41",
"d  c #635344",
"f  c #6A5640",
"g  c #6D5A43",
"h  c #655549",
"j  c #67584C",
"k  c #6D5C4E",
"l  c #715B44",
"z  c #735E4D",
"x  c #785F48",
"c  c #6B5B50",
"v  c #726047",
"b  c #75634B",
"n  c #7A654D",
"m  c #7A684F",
"M  c #756254",
"N  c #7D6B52",
"B  c #83674F",
"V  c #806553",
"C  c #836952",
"Z  c #856851",
"A  c #806E55",
"S  c #886B54",
"D  c #8A6D55",
"F  c #8C6F57",
"G  c #8B6E58",
"H  c #8D6F5C",
"J  c #827056",
"K  c #8F725C",
"L  c #907158",
"P  c #94745C",
"I  c #957662",
"U  c #9D7A63",
"Y  c #987864",
"T  c #9C7B65",
"R  c #9F7C64",
"E  c #A27E66",
"W  c #A68169",
"Q  c #A98369",
"!  c #AD866D",
"~  c #AC8770",
"^  c #B08870",
"/  c #B58D74",
"(  c #B98F74",
")  c #BB9177",
"_  c #C4967C",
"`  c #C89B81",
"'  c #CD9D82",
"]  c #D0A085",
"[  c #D5A386",
"{  c #D5A487",
"}  c #D6A488",
"|  c #DEAA8D",
" . c None",
/* pixels */
" . . . . . . . . . . . . . . . . . . . . . .",
" . . . . . . . . . . . . . . . . . . . . . .",
" . . . . . . . .* * * * * *  . . . . . . . .",
" . . . . . . . .> = > > 1 1  . . . . . . . .",
" . . . .1 2 3 6 6 9 0 w w r i r 9 3  . . . .",
" . . . .6 0 w r i p a f g g f p w 6  . . . .",
" . .6 0 r p f l b n n n N m b f u w 6 3  . .",
" . .6 0 p g n N A A N N N N b g p e 0 3  . .",
" . .6 w p v N A J N N m n v g a p r 0 6  . .",
" . .6 0 p g n N N m n n n b l a i e 0 3  . .",
" . .2 6 r a g g g l n C F D n g i 0 3 2  . .",
" . .1 6 w u p p a l C P E R G b p w 3 1  . .",
" . . . .0 e u p p x P ! ) / T C f u  . . . .",
" . . . .6 0 e i a B Q _ ] ` ~ K x a  . . . .",
" . . . .1 3 0 u l L ( [ | { ) U n l  . . . .",
" . . . .1 1 3 e l L ( ] } ' / E Z l  . . . .",
" . . . . . .1 0 f S W / ( ^ E P  . . . . . .",
" . . . . . .> 5 u z K Y I H V n  . . . . . .",
" . . . . . .; > 8 s z M z h s t  . . . . . .",
" . . . . . .- ; , q h c h y 7 <  . . . . . .",
" . . . . . .- ; , q k M k s 7 ,  . . . . . .",
" . . . . . .- ; , q j M k s 7 ,  . . . . . .",
" . . . . . .- ; , 8 s d d y 5 :  . . . . . .",
" . . . . . .* ; > 4 8 w w 6 > ;  . . . . . .",
" . . . .% & * * * ; : > > : * &  . . . . . .",
" . . . .% % % % % % % % % % % %  . . . . . .",
" . . . .$ $ $ $ @ + + + + # # #  . . . . . .",
" . . . .+ + + + o X X X o O + O  . . . . . .",
" . . . .X X X X . . . . . X X X . .  . . . .",
" . . . .. . . . .     . . . . . . .  . . . .",
" . . . . . . . . . . . . . . . . . . . . . .",
" . . . . . . . . . . . . . . . . . . . . . ."
};
