/* XPM */
static const char *character00Walk_Sheet_16[] = {
/* columns rows colors chars-per-pixel */
"22 32 96 2 ",
"   c #030300",
".  c #0C0905",
"X  c #130F08",
"o  c #16110A",
"O  c #1B150D",
"+  c #21190F",
"@  c #251D12",
"#  c #2B2216",
"$  c #2C2418",
"%  c #312619",
"&  c #352B1C",
"*  c #392D1E",
"=  c #372E23",
"-  c #3A2F21",
";  c #3D3122",
":  c #3E362B",
">  c #3E382F",
",  c #3F3931",
"<  c #423525",
"1  c #463927",
"2  c #453A2B",
"3  c #4C3D2B",
"4  c #423B32",
"5  c #423E39",
"6  c #4F402D",
"7  c #51422E",
"8  c #4C4135",
"9  c #45423C",
"0  c #544532",
"q  c #574833",
"w  c #5B4A35",
"e  c #50463B",
"r  c #54493E",
"t  c #5E4E38",
"y  c #614F3A",
"u  c #63513C",
"i  c #69563F",
"p  c #474440",
"a  c #4A4641",
"s  c #4E4C4A",
"d  c #564D45",
"f  c #5A4F46",
"g  c #544E49",
"h  c #5F5041",
"j  c #53514E",
"k  c #5B5149",
"l  c #575452",
"z  c #5B5651",
"x  c #5F5954",
"c  c #635341",
"v  c #6A5740",
"b  c #6D5B44",
"n  c #64554A",
"m  c #67594F",
"M  c #6B5A4B",
"N  c #715D46",
"B  c #765E49",
"V  c #785F49",
"C  c #605955",
"Z  c #6A5C51",
"A  c #74624A",
"S  c #7A634D",
"D  c #736154",
"F  c #7B6452",
"G  c #7E6A52",
"H  c #75655A",
"J  c #836B54",
"K  c #896C56",
"L  c #846B5A",
"P  c #8F715A",
"I  c #8E715D",
"U  c #90725B",
"Y  c #92735C",
"T  c #98775F",
"R  c #907462",
"E  c #957866",
"W  c #9B7A62",
"Q  c #9D7C65",
"!  c #987A68",
"~  c #A07D65",
"^  c #A38067",
"/  c #A5826B",
"(  c #AA856D",
")  c #AC866E",
"_  c #AF8970",
"`  c #B28A71",
"'  c #B28C73",
"]  c #B68E75",
"[  c #BC9279",
"{  c #C1967C",
"}  c #C6997E",
"|  c #CA9C81",
" . c #CD9E82",
".. c #CFA083",
"X. c #D1A185",
"o. c None",
/* pixels */
"o.o.o.o.o.o.o.o.o.o.o.o.o.o.o.o.o.o.o.o.o.o.",
"o.o.o.o.o.o.o.o.o.o.o.o.o.o.o.o.o.o.o.o.o.o.",
"o.o.o.o.o.o.o.o.& & & & & & o.o.o.o.o.o.o.o.",
"o.o.o.o.o.o.o.o.< ; ; ; ; < o.o.o.o.o.o.o.o.",
"o.o.o.o.1 3 7 q 7 7 7 7 7 0 q 7 1 ; ; ; o.o.",
"o.o.o.o.3 7 w t y u u u u u t q 6 3 1 1 o.o.",
"o.o.3 7 q y v b b b b N A N i u u t w q 3 1 ",
"o.o.3 7 t v A A A A S G G S b v b b v t 6 1 ",
"o.o.3 q u b A A A A G J G S v v b N b u 7 1 ",
"o.o.3 q u v b b b A G J G S N b N b v t 3 < ",
"o.o.1 3 q t u u u v A G G G S B N i y q < ; ",
"o.o.< 3 7 w u v b B J K U Y P J S i w 3 < & ",
"o.o.o.o.q y V J K P W / _ ` ) ~ K N w 3 o.o.",
"o.o.o.o.w v K W Q / ` [ } } [ ) W S w 3 o.o.",
"o.o.o.o.u B T ( ( ' } ..X.| [ _ ^ K y 3 o.o.",
"o.o.o.o.y N Y / ( ' }  .| { ` / W K u 7 o.o.",
"o.o.o.o.0 y F I W / ` ] ] ) Q Y J S o.o.o.o.",
"o.o.o.o.8 r n D L I E ! E R L F M c o.o.o.o.",
"o.o.o.o.f f k n m Z H H H D Z k r 8 4 : o.o.",
"o.o.o.o.m m k g g k z C x l g a 5 4 4 2 o.o.",
"o.o.q u F F m k s s j l l j a 9 5 4 8 0 o.o.",
"o.o.q u G F m d a a s g s a 9 5 4 2 0 q o.o.",
"o.o.o.o.A M h e 9 5 9 p p 9 5 , : 1 3 6 o.o.",
"o.o.o.o.N c 0 2 2 > , , 4 , > : ; ; 1 3 o.o.",
"o.o.o.o.o.o.< ; ; ; = = ; ; ; - & & o.o.o.o.",
"o.o.o.o.o.o.* * - & $ # $ % % % # # o.o.o.o.",
"o.o.o.o.o.o.o.o.o.o.O O O @ @ @ + O o.o.o.o.",
"o.o.o.o.o.o.o.o.o.o.. . . X o o o X o.o.o.o.",
"o.o.o.o.                    . . . . o.o.o.o.",
"o.o.o.o.                            o.o.o.o.",
"o.o.o.o.o.o.o.o.o.o.o.o.o.o.o.o.o.o.o.o.o.o.",
"o.o.o.o.o.o.o.o.o.o.o.o.o.o.o.o.o.o.o.o.o.o."
};
