/* XPM */
static const char *character00Walk_Sheet_6[] = {
/* columns rows colors chars-per-pixel */
"22 32 90 1 ",
"  c #040302",
". c #090704",
"X c #0B0905",
"o c #120E07",
"O c #140F09",
"+ c #151009",
"@ c #1A140B",
"# c #1E180D",
"$ c #211A0F",
"% c #251D11",
"& c #2C2315",
"* c #302719",
"= c #342A1B",
"- c #2E2921",
"; c #332D24",
": c #382F22",
"> c #3D3223",
", c #3C342C",
"< c #433624",
"1 c #463926",
"2 c #483A27",
"3 c #433729",
"4 c #463B2D",
"5 c #4C3D2A",
"6 c #463C32",
"7 c #493E32",
"8 c #4F412C",
"9 c #52422E",
"0 c #4C4136",
"q c #4E443B",
"w c #554532",
"e c #594732",
"r c #5C4B35",
"t c #51453A",
"y c #574A3E",
"u c #5C4C3A",
"i c #624F37",
"p c #614F39",
"a c #64523B",
"s c #69553E",
"d c #5C4E41",
"f c #655444",
"g c #695740",
"h c #6D5A43",
"j c #65564A",
"k c #695A4E",
"l c #725C45",
"z c #725E4C",
"x c #6C5C50",
"c c #76634B",
"v c #7A644D",
"b c #7B684F",
"n c #766254",
"m c #7F6552",
"M c #7D6B52",
"N c #80644E",
"B c #84684F",
"V c #836852",
"C c #866851",
"Z c #806E54",
"A c #8A6C56",
"S c #8C6E57",
"D c #8B6E58",
"F c #827056",
"G c #8C705C",
"H c #917158",
"J c #90725C",
"K c #94735C",
"L c #96765C",
"P c #947561",
"I c #9D7A63",
"U c #9F7B64",
"Y c #A27D65",
"T c #A58169",
"R c #AA8369",
"E c #AE866D",
"W c #AF886F",
"Q c #AD8770",
"! c #B78D73",
"~ c #B68D74",
"^ c #B98F74",
"/ c #BB9074",
"( c #BC9177",
") c #C4977B",
"_ c #C99B81",
"` c #CC9E82",
"' c #D0A084",
"] c #D5A486",
"[ c #DEAB8D",
"{ c None",
/* pixels */
"{{{{{{{{{{{{{{{{{{{{{{",
"{{{{{{{{{{{{{{{{{{{{{{",
"{{{{{{{{======{{{{{{{{",
"{{{{{{{{<<>>>>{{{{{{{{",
"{{{{15rprew985551<{{{{",
"{{{{59ahhhgsaprw95{{{{",
"{{259rhcbMvccclhar95{{",
"{{55eahcMZMMZZMvha95{{",
"{{59easlcvvMZFFMlaw5{{",
"{{59epslcvvvbMMvha95{{",
"{{159phvASVvlllhsr52{{",
"{{<5wacDUYKVlssarw5<{{",
"{{{{rhVU~(ELcaire9{{{{",
"{{{{slJQ_')RBsrw95{{{{",
"{{{{lNI/][]/Hlr92<{{{{",
"{{{{lCY!`]'^Hle5<<{{{{",
"{{{{{{LYW~~TAg9<{{{{{{",
"{{{{{{vmDPPGcu2>{{{{{{",
"{{{{{{tyfknzd7>;{{{{{{",
"{{{{{{,6yjkjt,;-{{{{{{",
"{{{{{{,7fznxt,;-{{{{{{",
"{{{{{{,4aznkq,;-{{{{{{",
"{{{{{{:3rffd0,;-{{{{{{",
"{{{{{{=>4wt04>;={{{{{{",
"{{{{{{&&=>>>>:=*{{{{{{",
"{{{{{{$%&&&***&&{{{{{{",
"{{{{{{@@#$$%%%%#OX{{{{",
"{{{{{{Xo++++@@@+X.{{{{",
"{{{{   .........  {{{{",
"{{{{              {{{{",
"{{{{{{{{{{{{{{{{{{{{{{",
"{{{{{{{{{{{{{{{{{{{{{{"
};
