/* XPM */
static const char *character00Walk_Sheet_11[] = {
/* columns rows colors chars-per-pixel */
"22 32 99 2 ",
"   c #040301",
".  c #090703",
"X  c #0C0A05",
"o  c #0F0D08",
"O  c #141009",
"+  c #19140B",
"@  c #1F1912",
"#  c #241D12",
"$  c #282116",
"%  c #2D261C",
"&  c #2E281F",
"*  c #322719",
"=  c #352A1C",
"-  c #2F2A22",
";  c #332C22",
":  c #382F24",
">  c #363025",
",  c #3D3222",
"<  c #35312B",
"1  c #3A352D",
"2  c #3B3630",
"3  c #3B3935",
"4  c #3E3C38",
"5  c #423524",
"6  c #463927",
"7  c #443A2C",
"8  c #4B3D2B",
"9  c #493E32",
"0  c #413F3B",
"q  c #4F402D",
"w  c #51422E",
"e  c #4F4232",
"r  c #44413D",
"t  c #554632",
"y  c #584733",
"u  c #5C4B36",
"i  c #50463C",
"p  c #5E4E39",
"a  c #624F3A",
"s  c #63523C",
"d  c #68563F",
"f  c #474643",
"g  c #484746",
"h  c #4E4C4A",
"j  c #534B43",
"k  c #5C4D40",
"l  c #524D48",
"z  c #5E5040",
"x  c #5A534C",
"c  c #565351",
"v  c #5F5853",
"b  c #675546",
"n  c #6A5640",
"m  c #6D5B43",
"M  c #62564C",
"N  c #6C5B4B",
"B  c #715D46",
"V  c #745E4B",
"C  c #785F49",
"Z  c #605A55",
"A  c #6C5D52",
"S  c #75624A",
"D  c #7A634D",
"F  c #746255",
"G  c #7C6652",
"H  c #7E6A52",
"J  c #75655B",
"K  c #80644E",
"L  c #836B54",
"P  c #896C56",
"I  c #816958",
"U  c #8A6E5A",
"Y  c #8F715B",
"T  c #90725A",
"R  c #92745C",
"E  c #8D7260",
"W  c #907562",
"Q  c #957866",
"!  c #9B7A62",
"~  c #9C7A63",
"^  c #9D7B65",
"/  c #9F7D67",
"(  c #987B68",
")  c #A17D66",
"_  c #A5826A",
"`  c #AA856E",
"'  c #AD876E",
"]  c #AF8970",
"[  c #B28B72",
"{  c #B38C73",
"}  c #B58E75",
"|  c #BC9279",
" . c #C1967C",
".. c #C6997E",
"X. c #CA9C81",
"o. c #CC9E82",
"O. c #CFA083",
"+. c #D1A185",
"@. c None",
/* pixels */
"@.@.@.@.@.@.@.@.@.@.@.@.@.@.@.@.@.@.@.@.@.@.",
"@.@.@.@.@.@.@.@.@.@.@.@.@.@.@.@.@.@.@.@.@.@.",
"@.@.@.@.@.@.@.@.= = = = = = @.@.@.@.@.@.@.@.",
"@.@.@.@.@.@.@.@.5 , , , , 5 @.@.@.@.@.@.@.@.",
"@.@.@.@.6 8 w t w w w w w t t w 6 , , , @.@.",
"@.@.@.@.8 w u p s s s s s s p t q 8 6 6 @.@.",
"@.@.8 q y a n m B B B B S B d s s p p t 8 6 ",
"@.@.8 w p n S S S S D H H S m n m m n p q 6 ",
"@.@.q t s m S S S S H L H S n n B B m s w 8 ",
"@.@.8 t s n m B m S H L H D m m B m n p 8 5 ",
"@.@.6 8 t p s s s n S H H H D V B d a t 5 > ",
"@.@.5 8 w u s n m S L P T R Y P D n u 8 , = ",
"@.@.@.@.t a C L P Y ! _ ] [ ' ) U B u 8 @.@.",
"@.@.@.@.u n P ! ^ _ [ | ....| ' ~ K u 8 @.@.",
"@.@.@.@.s V ! ` ` [ ..O.+.X.| ] ) P a w @.@.",
"@.@.@.@.a B R _ ` [ ..o.X. .[ _ ~ P s w @.@.",
"@.@.@.@.e p D Y ! _ [ } { ' / R L D @.@.@.@.",
"@.@.@.@.1 9 p V I E Q ( Q W U G V b @.@.@.@.",
"@.@.@.@.; 1 9 j M A J J J F A N M j 7 > @.@.",
"@.@.@.@.& ; 1 r j x v Z v v M M M k 9 1 @.@.",
"@.@.@.@.% ; < 4 f h c c c x M A F N t 8 @.@.",
"@.@.@.@.% - < 3 r g h h h l x N G S p 8 @.@.",
"@.@.@.@.@.@.< 1 4 0 r r r r i z N S @.@.@.@.",
"@.@.@.@.@.@.> < 1 2 2 2 1 1 7 e n S @.@.@.@.",
"@.@.@.@.@.@.; ; > : ; ; % % = > @.@.@.@.@.@.",
"@.@.@.@.@.@.* * * % $ # @ # $ % @.@.@.@.@.@.",
"@.@.@.@.@.@.# # # # + O o o @.@.@.@.@.@.@.@.",
"@.@.@.@.@.@.+ + + O o .     @.@.@.@.@.@.@.@.",
"@.@.@.@.    . X X .                 @.@.@.@.",
"@.@.@.@.                            @.@.@.@.",
"@.@.@.@.@.@.@.@.@.@.@.@.@.@.@.@.@.@.@.@.@.@.",
"@.@.@.@.@.@.@.@.@.@.@.@.@.@.@.@.@.@.@.@.@.@."
};
