/* XPM */
static const char *collectible[] = {
/* columns rows colors chars-per-pixel */
"32 32 86 1 ",
"  c black",
". c #130000",
"X c #160200",
"o c #1A0000",
"O c #1E0000",
"+ c #100908",
"@ c #150B0A",
"# c #1B0F0D",
"$ c #1F1210",
"% c #220300",
"& c #230401",
"* c #250603",
"= c #270704",
"- c #2C0A06",
"; c #3A130E",
": c #211211",
"> c #341511",
", c #3E1611",
"< c #401612",
"1 c #4F201B",
"2 c #53231D",
"3 c #4C2F2C",
"4 c #592721",
"5 c #5D3B38",
"6 c #6E3D37",
"7 c #694642",
"8 c #6A4A47",
"9 c #814038",
"0 c #8B473F",
"q c #814841",
"w c #8D4840",
"e c #855751",
"r c #9C5951",
"t c #A0544A",
"y c #A1554C",
"u c #B65A4F",
"i c #A15850",
"p c #B85B50",
"a c #B95C51",
"s c #BC5F54",
"d c #AD6157",
"f c #B46157",
"g c #B06259",
"h c #B76359",
"j c #B9645A",
"k c #BD675C",
"l c #906D69",
"z c #C26459",
"x c #C6675C",
"c c #C0695E",
"v c #C6685C",
"b c #C96A5E",
"n c #C56C61",
"m c #C96E63",
"M c #CE6E63",
"N c #CE7267",
"B c #CF7368",
"V c #D07267",
"C c #D47367",
"Z c #D07368",
"A c #D27469",
"S c #D4756A",
"D c #D6776C",
"F c #DB7A6E",
"G c #DD7A6E",
"H c #DF7D71",
"J c #E07E72",
"K c #E47E72",
"L c #AA817C",
"P c #CE847C",
"I c #E48073",
"U c #E58074",
"Y c #B78681",
"T c #BC9692",
"R c #BD9894",
"E c #C9948E",
"W c #C39B97",
"Q c #E19389",
"! c #E69288",
"~ c #EB9E94",
"^ c #ECA198",
"/ c #F1A299",
"( c #F0A69C",
") c #D7AEA9",
"_ c #D9B0AB",
"` c None",
/* pixels */
"````````````````````````````````",
"````````````````````````````````",
"````````````````````````````````",
"````````````````````````````````",
"````````````````````````````````",
"````````````````````````````````",
"````````````````````````````````",
"````````````````````````````````",
"````````````````````````````````",
"````````````````````````````````",
"````````````````````````````````",
"````````````````````````````````",
"```````````>>>>>>>>`````````````",
"````````*O7_)))))_W>&```````````",
"```````olRE!!!!!!!QTT5``````````",
"``````-9P(!GGGGGGGH~^Y8`````````",
"``````=cKGGHHHJJHHHJG/e.````````",
"``````4nJHHHHGjmHHFfSKr3````````",
"`````,ZHHHHHHG10UJn;hJ^L%```````",
"`````,AHHHHHHG2wUJn,jJUi%```````",
"`````,AJHHHHHHcNHHFkSHIt%```````",
"`````,ZvCHHHHHJJHHHJHHUt%```````",
"`````<VuMJJJJJJJHHHJJMSy%```````",
"`````>SxbMMMMMMMSHGVMzCyX```````",
"`````$gFxpaaaaapbJFsaCAq ```````",
"``````@dANNNNNNNBABNND6 ````````",
"`````  #::::::::::::::+  ```````",
"``````                  ````````",
"````````````````````````````````",
"````````````````````````````````",
"````````````````````````````````",
"````````````````````````````````"
};
