/* XPM */
static const char *exit[] = {
/* columns rows colors chars-per-pixel */
"32 32 58 1 ",
"  c #111720",
". c #151520",
"X c #151821",
"o c #141C25",
"O c #1D1B26",
"+ c #241C28",
"@ c #18212A",
"# c #1B222B",
"$ c #1B222C",
"% c #27212D",
"& c #2F2331",
"* c #2D2D37",
"= c #27323B",
"- c #2F333D",
"; c #37333F",
": c #2D3D45",
"> c #3A3642",
", c #39454C",
"< c #3D464F",
"1 c #4F454C",
"2 c #48595E",
"3 c #6D5657",
"4 c #4B5D63",
"5 c #485E63",
"6 c #495F63",
"7 c #505B64",
"8 c #4C6368",
"9 c #4E6268",
"0 c #4C6468",
"q c #4E656A",
"w c #4F656A",
"e c #4F666C",
"r c #51666C",
"t c #54686E",
"y c #526C70",
"u c #566D73",
"i c #556F74",
"p c #566E74",
"a c #557075",
"s c #567176",
"d c #567177",
"f c #567277",
"g c #577277",
"h c #577377",
"j c #577378",
"k c #587378",
"l c #597478",
"z c #5F787A",
"x c #5F787B",
"c c #646A6A",
"v c #677C7D",
"b c #677D7E",
"n c #7A7C74",
"m c #74817D",
"M c #B49F88",
"N c #AFAE9B",
"B c #BEB09A",
"V c #C2B79E",
/* pixels */
"gggggggggggggggggggggggggggggggg",
"gggggggggggggggggggggggggggggggg",
"gggggggggggggggggggggggggggggggg",
"gggggggggggggggggggggggggggggggg",
"gggggggggggggggggggggggggggggggg",
"gggggggggggggggggggggggggggggggg",
"gggggggggggggggggggggggggggggggg",
"gggggggggggggggggggggggggggggggg",
"gggggggggggggggggggggggggggggggg",
"gggggggggggggggggggggggggggggggg",
"gggggggggggggggggggggggggggggggg",
"gggggggggggggggzvlgggggggggggggg",
"ggggggggggggggzNVmgggggggggggggg",
"ggggggggggggggvBMngggggggggggggg",
"gggggggggggggj713cjggggggggggggg",
"gggggggggggggp;$=<uggggggggggggg",
"ggggggggggggjt+o:-rjgggggggggggg",
"ggggggggggggkeX ##wkgggggggggggg",
"ggggggggggggj8O$.%4ggggggggggggg",
"gggggggggggggw*&>,4ggggggggggggg",
"gggggggggggggg8248yggggggggggggg",
"ggggggggggggggggpggggggggggggggg",
"gggggggggggggggggggggggggggggggg",
"gggggggggggggggggggggggggggggggg",
"gggggggggggggggggggggggggggggggg",
"gggggggggggggggggggggggggggggggg",
"gggggggggggggggggggggggggggggggg",
"gggggggggggggggggggggggggggggggg",
"gggggggggggggggggggggggggggggggg",
"gggggggggggggggggggggggggggggggg",
"gggggggggggggggggggggggggggggggg",
"gggggggggggggggggggggggggggggggg"
};
