/* XPM */
static const char *floor[] = {
/* columns rows colors chars-per-pixel */
"32 32 187 2 ",
"   c #5F793F",
".  c #5F7A3F",
"X  c #5F7B3F",
"o  c #5F7B40",
"O  c #5F7C40",
"+  c #5F7D40",
"@  c #5F7E40",
"#  c #5F7F40",
"$  c #6C6E47",
"%  c #6C6F47",
"&  c #756E4D",
"*  c #657142",
"=  c #657242",
"-  c #617740",
";  c #687645",
":  c #617840",
">  c #617A40",
",  c #617B40",
"<  c #637B42",
"1  c #637C42",
"2  c #647C43",
"3  c #677D46",
"4  c #6A7947",
"5  c #687F47",
"6  c #6E7F4B",
"7  c #70734B",
"8  c #74724E",
"9  c #72794D",
"0  c #727A4D",
"q  c #727B4E",
"w  c #727C4E",
"e  c #796F51",
"r  c #777651",
"t  c #777751",
"y  c #558D3D",
"u  c #568D3D",
"i  c #57913E",
"p  c #57913F",
"a  c #57923F",
"s  c #57973F",
"d  c #58923F",
"f  c #58933F",
"g  c #58973F",
"h  c #5F8240",
"j  c #5F8340",
"k  c #5E8540",
"l  c #5E8640",
"z  c #5E8740",
"x  c #5F8641",
"c  c #5F8743",
"v  c #5E8841",
"b  c #5E8A40",
"n  c #5E8A41",
"m  c #5E8F41",
"M  c #5B9041",
"N  c #589240",
"B  c #589340",
"V  c #599340",
"C  c #5B9241",
"Z  c #5F9043",
"A  c #5F9342",
"S  c #589440",
"D  c #599440",
"F  c #599540",
"G  c #599640",
"H  c #5A9640",
"J  c #5A9740",
"K  c #5F9443",
"L  c #5E9742",
"P  c #599A40",
"I  c #599B40",
"U  c #5A9B40",
"Y  c #5C9841",
"T  c #5D9841",
"R  c #5C9941",
"E  c #5C9A42",
"W  c #5E9A43",
"Q  c #599C40",
"!  c #5A9C40",
"~  c #5A9C41",
"^  c #5A9D41",
"/  c #5A9E41",
"(  c #5B9E41",
")  c #5B9F41",
"_  c #5D9C41",
"`  c #5D9D41",
"'  c #5E9D42",
"]  c #5D9E42",
"[  c #638443",
"{  c #628643",
"}  c #628743",
"|  c #658746",
" . c #618B43",
".. c #668A47",
"X. c #668B47",
"o. c #608C44",
"O. c #688448",
"+. c #619644",
"@. c #5BA041",
"#. c #5CA042",
"$. c #5DA042",
"%. c #5CA342",
"&. c #5EA243",
"*. c #5EA343",
"=. c #5BAB42",
"-. c #5EA843",
";. c #5DAB42",
":. c #5DAA43",
">. c #5DAB43",
",. c #5EAB43",
"<. c #5CAC42",
"1. c #5DAC42",
"2. c #5CAD42",
"3. c #5DAD42",
"4. c #5CAD43",
"5. c #5CAE43",
"6. c #5DAE43",
"7. c #5DAF43",
"8. c #5DB043",
"9. c #5EB043",
"0. c #5EB243",
"q. c #5DB044",
"w. c #5EB044",
"e. c #5EB344",
"r. c #5EB844",
"t. c #5FB844",
"y. c #5EB944",
"u. c #5EBA44",
"i. c #5FBA44",
"p. c #5FBB44",
"a. c #5FBB45",
"s. c #5FBC45",
"d. c #60BC44",
"f. c #60BD44",
"g. c #60BC45",
"h. c #60BF45",
"j. c #60C145",
"k. c #60C245",
"l. c #61C245",
"z. c #61C345",
"x. c #62C245",
"c. c #60C246",
"v. c #61C246",
"b. c #61C346",
"n. c #61C347",
"m. c #62C246",
"M. c #62C346",
"N. c #62C247",
"B. c #62C347",
"V. c #61C445",
"C. c #61C446",
"Z. c #61C546",
"A. c #61C447",
"S. c #62C446",
"D. c #63C446",
"F. c #62C546",
"G. c #62C447",
"H. c #63C447",
"J. c #63C547",
"K. c #61C646",
"L. c #64C447",
"P. c #63C248",
"I. c #62C348",
"U. c #63C348",
"Y. c #63C349",
"T. c #64C349",
"R. c #65C34A",
"E. c #65C24B",
"W. c #65C34B",
"Q. c #63C548",
"!. c #64C448",
"~. c #66C44A",
"^. c #66C44B",
"/. c #67C44B",
"(. c #66C54B",
"). c #66C34D",
"_. c #67C34D",
"`. c #67C54C",
"'. c #68C34F",
"]. c #68C54C",
"[. c #68C44D",
"{. c #6AC551",
"}. c #6AC452",
"|. c #6BC552",
" X c #6BC553",
".X c #6CC654",
"XX c #6DC556",
/* pixels */
"t 0 5 c C S a a C C a a a d S S S S S C a a C S d d S C c 5 0 t ",
"w 6 | Z E ^ I I ^ ^ I I I ^ ^ @.^ ^ ^ ^ I I ^ ^ ^ ^ ^ E Z | 6 0 ",
"O.X.+.&.>.4.4.4.4.4.4.4.4.4.4.9.9.4.4.4.4.4.4.4.4.4.4.>.&.+.X.O.",
"o.K &.w.u.s.s.u.s.s.u.u.u.u.s.h.h.s.u.u.u.s.h.h.u.u.s.u.w.&.K o.",
"C E >.u.h.v.v.v.v.v.v.v.v.v.v.v.v.v.v.v.v.v.v.v.v.v.v.h.u.>.E C ",
"d I 4.u.v.K.K.K.K.K.K.K.K.K.K.K.K.K.K.K.K.K.K.K.K.K.K.v.u.4.I d ",
"u s =.u.v.K.K.K.K.K.K.K.K.K.K.K.K.K.K.K.K.K.K.K.K.K.K.v.u.=.s u ",
"u g =.u.v.K.K.K.K.K.K.K.K.K.K.K.K.K.K.K.L.L.K.K.K.K.K.v.u.=.s u ",
"d I 4.u.v.K.K.K.K.K.K.K.K.K.K.K.K.K.K.K.L.L.K.K.K.K.K.v.u.4.I a ",
"S ^ 4.s.v.K.K.K.K.K.K.K.K.K.K.K.K.K.K.K.K.K.K.K.K.K.K.v.u.4.^ d ",
"d ^ 4.u.v.K.K.K.K.K.K.K.K.K.K.K.K.K.K.K.K.K.K.K.K.K.K.v.u.4.I a ",
"d I 4.u.v.K.K.K.K.K.K.K.K.K.K.K.K.K.K.K.K.K.K.K.K.K.K.v.u.>.I a ",
"d I 4.u.v.K.K.K.K.K.K.K.K.L.L.L.L.K.K.K.K.K.K.K.K.K.K.v.u.4.I d ",
"d ^ 4.u.v.K.K.K.K.K.K.K.!.!.!.].].!.!.K.K.K.K.K.K.K.K.v.u.4.^ d ",
"C ^ 4.h.v.K.K.K.K.K.K.P.R.].|..X.X|.!.K.K.K.K.K.K.K.K.v.h.4.^ C ",
"S ^ 4.h.v.K.K.K.K.K.v.P.R._.|..X.X|.!.v.K.K.K.K.K.K.K.v.h.4.^ S ",
"S ^ 4.h.v.K.K.K.K.K.v.v.v.R.'.|.|.'.R.v.v.v.K.K.K.K.K.v.h.4.^ S ",
"S ^ 4.h.v.K.K.K.K.K.v.v.v.v.R._._.R.v.v.v.v.K.K.K.K.K.v.h.4.^ C ",
"d ^ 4.h.v.K.K.K.K.K.K.v.v.v.v.P.P.P.v.v.K.K.K.K.K.K.K.v.h.4.^ d ",
"d I 4.h.v.K.K.K.K.K.K.K.v.v.v.v.v.v.v.v.K.K.K.K.K.K.K.v.s.4.I a ",
"a I 4.u.v.K.K.K.K.K.K.K.K.K.K.K.K.K.K.K.K.K.K.K.K.K.K.v.s.4.I a ",
"a I 4.u.v.K.K.K.K.K.K.K.K.K.K.K.K.K.K.K.K.K.K.K.K.K.K.v.s.4.I a ",
"C ^ 4.s.v.K.K.K.K.K.K.K.K.K.K.K.K.K.K.K.K.K.K.K.K.K.K.v.s.4.^ C ",
"S ^ 4.s.v.K.K.K.K.K.K.K.K.K.K.K.K.K.K.K.K.K.K.K.K.K.K.v.s.4.^ S ",
"d ^ 4.s.v.K.K.K.K.K.K.K.K.K.K.K.K.K.K.K.K.K.K.K.K.K.K.v.u.4.^ d ",
"S ^ 4.u.v.K.K.K.K.K.K.K.K.K.K.K.K.K.K.K.K.K.K.K.K.K.K.v.u.4.^ S ",
"E &.9.u.v.K.v.v.v.v.v.v.v.v.v.v.v.v.v.v.K.K.v.v.v.v.v.v.u.9.&.I ",
"Z E >.9.u.h.h.h.h.h.h.h.h.h.h.h.h.h.h.h.h.h.h.h.h.h.h.u.9.>.E Z ",
"[  .E &.4.9.4.9.9.9.9.4.4.4.4.4.4.4.4.4.4.9.9.9.9.4.9.>.&.K  .[ ",
"4 3 [ m E ` ` ` &.&.` ` ` ` ` ` ` ` ` ` ` ` &.&.` ` ` E m [ 3 4 ",
"8 7 ; 1 j c c v v v c u c u u [ [ [ [ u u c v v v c c [ : ; 7 8 ",
"e & % = : X o + + X X X X X X : 2 2 : X X X 1 1 + X X - = % & e "
};
