/* XPM */
static const char *wall[] = {
/* columns rows colors chars-per-pixel */
"24 32 109 2 ",
"   c #020101",
".  c #040302",
"X  c #050403",
"o  c #090704",
"O  c #0E0A07",
"+  c #120E09",
"@  c #13100A",
"#  c #17120B",
"$  c #1B150D",
"%  c #1D170E",
"&  c #1D180E",
"*  c #1A1F0E",
"=  c #211B10",
"-  c #221F11",
";  c #251D12",
":  c #0C2707",
">  c #022E01",
",  c #042C02",
"<  c #0B2906",
"1  c #13230A",
"2  c #102409",
"3  c #15240B",
"4  c #16230C",
"5  c #17240C",
"6  c #1B200E",
"7  c #033301",
"8  c #043301",
"9  c #043701",
"0  c #053801",
"q  c #063C01",
"w  c #083F01",
"e  c #1F2110",
"r  c #202211",
"t  c #262112",
"y  c #282213",
"u  c #084002",
"i  c #0B4703",
"p  c #0B4802",
"a  c #0C4A02",
"s  c #0F4E03",
"d  c #0E4D04",
"f  c #0F5003",
"g  c #0F5004",
"h  c #115305",
"j  c #115504",
"k  c #135904",
"l  c #145807",
"z  c #175F06",
"x  c #186207",
"c  c #1A630A",
"v  c #1A6508",
"b  c #1C660A",
"n  c #1C680A",
"m  c #1F6C0B",
"M  c #1E690C",
"N  c #1F6C0C",
"B  c #206C0E",
"V  c #22700E",
"C  c #24730F",
"Z  c #24740F",
"A  c #247311",
"S  c #267611",
"D  c #277812",
"F  c #287913",
"G  c #297A15",
"H  c #2B7D16",
"J  c #2C7F16",
"K  c #2E8117",
"L  c #2F8319",
"P  c #2F8419",
"I  c #32861B",
"U  c #33891C",
"Y  c #368C1F",
"T  c #378D20",
"R  c #398F22",
"E  c #399122",
"W  c #3C9324",
"Q  c #3E9526",
"!  c #42932D",
"~  c #409928",
"^  c #469D2E",
"/  c #489B32",
"(  c #489F31",
")  c #4A9E34",
"_  c #46A12E",
"`  c #48A22F",
"'  c #4AA233",
"]  c #4BA432",
"[  c #4CA633",
"{  c #4BA234",
"}  c #4CA534",
"|  c #4EA835",
" . c #50AA36",
".. c #50AC36",
"X. c #51A839",
"o. c #52AD38",
"O. c #54AD3B",
"+. c #55AF3C",
"@. c #55B03B",
"#. c #57B23C",
"$. c #5BB541",
"%. c #5CB541",
"&. c #5DB843",
"*. c #60B946",
"=. c #62BD47",
"-. c #63BE48",
";. c #65BF4A",
":. c #66C04B",
">. c None",
/* pixels */
">.>.>.>.>.>.>.>.! ! >.>.>.>.>.>.>.>.>.>.>.>.>.>.",
">.>.>.>.>.>.>.>./ ) >.>.>.>.>.>.>.>.>.>.>.>.>.>.",
">.>.>.>.>.>.( { X.+.*.:.:.=.%.O.} ' >.>.>.>.>.>.",
">.>.>.>.>.>.^ } +.&.=.;.;.=.$.O.} ^ >.>.>.>.>.>.",
">.>.>.>.L Y ~ [ @.&.=.-.-.*.$.O.] ~ U H >.>.>.>.",
">.>.>.>.G I Q ` ..#.$.&.&.$.@.| ^ E K S >.>.>.>.",
">.>.a l B H T ~ _ [  .o.o. .] ^ W I S b j a >.>.",
">.>.a h c A L T Q ~ ^ _ _ ^ Q R I G N z g a >.>.",
">.>.a h z M S K I Y E E E R U K D B v k d i >.>.",
">.>.a s j c n C F H L P L J F Z m v l h a i >.>.",
">.>.i a f l x n m V V Z V B N n x l j s i u >.>.",
">.>.u i a h l z x v v v v x x z l j s i u q >.>.",
">.>.q u a f j l l z z z z z l k j f a i q 0 >.>.",
">.>.0 q u a f j j j j j j j j h f a i u 0 9 >.>.",
">.>.9 9 q u p s s s s s s s s s a i u 0 8 > >.>.",
">.>.7 7 9 q u i i i i i p p p i i u q 9 > > >.>.",
">.>.> > 7 9 0 q w u w w w u u w w q 9 7 > > >.>.",
">.>.> > 7 7 8 9 0 0 9 9 9 9 0 0 0 9 7 7 > > >.>.",
">.>.>.>.> > > 7 8 8 , , , , 8 8 8 7 > > >.>.>.>.",
">.>.>.>.> > > , , < < : : : < < , > > > >.>.>.>.",
">.>.>.>.>.>.>.>.2 2 3 5 4 4 1 2 >.>.>.>.>.>.>.>.",
">.>.>.>.>.>.>.>.6 6 e r r e 6 * >.>.>.>.>.>.>.>.",
">.>.>.>.>.>.>.>.- r t y y t - - >.>.>.>.>.>.>.>.",
">.>.>.>.>.>.>.>.% = ; ; ; ; = % >.>.>.>.>.>.>.>.",
">.>.          o + # $ & & $ # + o       >.>.>.>.",
">.>.          X o O + + @ + O o X       >.>.>.>.",
">.>.>.>.        . X o o o o X .         >.>.>.>.",
">.>.>.>.                                >.>.>.>.",
">.>.>.>.>.>.>.>.    >.>.    >.>.>.>.>.>.>.>.>.>.",
">.>.>.>.>.>.>.>.    >.>.    >.>.>.>.>.>.>.>.>.>.",
">.>.>.>.>.>.>.>.>.>.>.>.>.>.>.>.>.>.>.>.>.>.>.>.",
">.>.>.>.>.>.>.>.>.>.>.>.>.>.>.>.>.>.>.>.>.>.>.>."
};
